<svg width="263" height="228" viewBox="0 0 263 228" fill="none" xmlns="http://www.w3.org/2000/svg">
<path d="M247.351 119.803L246.324 120.896L246.334 120.905L246.344 120.914L247.351 119.803ZM67.4766 81.3409L66.4725 82.4552L67.4766 81.3409ZM67.4766 206.258L68.7051 205.398L68.5937 205.239L68.4454 205.113L67.4766 206.258ZM61.2089 226.071C61.2479 226.898 61.9504 227.537 62.7779 227.498L76.2629 226.862C77.0904 226.823 77.7296 226.121 77.6906 225.293C77.6515 224.466 76.949 223.826 76.1215 223.865L64.1349 224.431L63.5693 212.444C63.5302 211.617 62.8277 210.978 62.0002 211.017C61.1727 211.056 60.5336 211.758 60.5726 212.586L61.2089 226.071ZM262.771 23.2113C247.77 14.2306 229.947 6.90746 213.965 3.17883C205.975 1.31459 198.395 0.337128 191.83 0.522247C185.292 0.706604 179.594 2.04866 175.528 4.98744C171.371 7.99112 169.089 12.5406 169.224 18.6613C169.357 24.6905 171.826 32.2334 177.015 41.4749C187.4 59.9715 208.992 85.8105 246.324 120.896L248.378 118.71C211.104 83.6786 189.785 58.0928 179.631 40.0062C174.549 30.9562 172.341 23.9179 172.224 18.5952C172.108 13.3637 174.003 9.79037 177.285 7.41898C180.656 4.98268 185.658 3.69746 191.915 3.52106C198.144 3.34541 205.454 4.2737 213.284 6.10037C228.942 9.75362 246.478 16.9531 261.229 25.7853L262.771 23.2113ZM246.344 120.914C251.267 125.379 254.115 129.845 255.22 133.965C256.315 138.051 255.722 141.872 253.62 145.207C249.36 151.965 238.619 157.088 222.028 157.404C188.996 158.032 134.246 139.483 68.4807 80.2265L66.4725 82.4552C132.547 141.99 188.005 161.052 222.085 160.403C239.05 160.081 251.091 154.844 256.157 146.807C258.718 142.744 259.423 138.058 258.118 133.189C256.822 128.355 253.57 123.418 248.359 118.692L246.344 120.914ZM68.4807 80.2265C53.6283 66.8441 38.8652 61.8505 26.7687 63.779C14.5951 65.7198 5.51007 74.6114 2.04575 88.0927C-4.84866 114.922 10.348 159.894 66.5078 207.403L68.4454 205.113C12.5925 157.863 -1.50861 113.978 4.95132 88.8394C8.16414 76.3369 16.4193 68.4669 27.241 66.7416C38.1398 65.004 52.0272 69.4397 66.4725 82.4552L68.4807 80.2265ZM66.2481 207.119C67.4965 208.901 68.6783 210.427 68.5756 212.849C68.4704 215.328 66.9737 219.082 61.5977 224.991L63.8167 227.009C69.3422 220.937 71.4225 216.522 71.5729 212.976C71.7257 209.374 69.8415 207.02 68.7051 205.398L66.2481 207.119Z" fill="#F4A627"/>
</svg>
