<svg width="284" height="284" viewBox="0 0 284 284" fill="none" xmlns="http://www.w3.org/2000/svg">
<circle cx="3.82468" cy="3.82468" r="3.45896" fill="#F4A627"/>
<circle cx="22.2724" cy="3.82468" r="3.45896" fill="#F4A627"/>
<circle cx="40.7202" cy="3.82468" r="3.45896" fill="#F4A627"/>
<circle cx="59.1679" cy="3.82468" r="3.45896" fill="#F4A627"/>
<circle cx="77.6158" cy="3.82468" r="3.45896" fill="#F4A627"/>
<circle cx="96.0635" cy="3.82468" r="3.45896" fill="#F4A627"/>
<circle cx="114.511" cy="3.82468" r="3.45896" fill="#F4A627"/>
<circle cx="132.959" cy="3.82468" r="3.45896" fill="#F4A627"/>
<circle cx="151.407" cy="3.82468" r="3.45896" fill="#F4A627"/>
<circle cx="169.855" cy="3.82468" r="3.45896" fill="#F4A627"/>
<circle cx="188.302" cy="3.82468" r="3.45896" fill="#F4A627"/>
<circle cx="206.75" cy="3.82468" r="3.45896" fill="#F4A627"/>
<circle cx="225.198" cy="3.82468" r="3.45896" fill="#F4A627"/>
<circle cx="243.646" cy="3.82468" r="3.45896" fill="#F4A627"/>
<circle cx="262.093" cy="3.82468" r="3.45896" fill="#F4A627"/>
<circle cx="280.541" cy="3.82468" r="3.45896" fill="#F4A627"/>
<circle cx="3.82468" cy="22.2724" r="3.45896" fill="#F4A627"/>
<circle cx="22.2724" cy="22.2724" r="3.45896" fill="#F4A627"/>
<circle cx="40.7202" cy="22.2724" r="3.45896" fill="#F4A627"/>
<circle cx="59.1679" cy="22.2724" r="3.45896" fill="#F4A627"/>
<circle cx="77.6158" cy="22.2724" r="3.45896" fill="#F4A627"/>
<circle cx="96.0635" cy="22.2724" r="3.45896" fill="#F4A627"/>
<circle cx="114.511" cy="22.2724" r="3.45896" fill="#F4A627"/>
<circle cx="132.959" cy="22.2724" r="3.45896" fill="#F4A627"/>
<circle cx="151.407" cy="22.2724" r="3.45896" fill="#F4A627"/>
<circle cx="169.855" cy="22.2724" r="3.45896" fill="#F4A627"/>
<circle cx="188.302" cy="22.2724" r="3.45896" fill="#F4A627"/>
<circle cx="206.75" cy="22.2724" r="3.45896" fill="#F4A627"/>
<circle cx="225.198" cy="22.2724" r="3.45896" fill="#F4A627"/>
<circle cx="243.646" cy="22.2724" r="3.45896" fill="#F4A627"/>
<circle cx="262.093" cy="22.2724" r="3.45896" fill="#F4A627"/>
<circle cx="280.541" cy="22.2724" r="3.45896" fill="#F4A627"/>
<circle cx="3.82468" cy="40.7202" r="3.45896" fill="#F4A627"/>
<circle cx="22.2724" cy="40.7202" r="3.45896" fill="#F4A627"/>
<circle cx="40.7202" cy="40.7202" r="3.45896" fill="#F4A627"/>
<circle cx="59.1679" cy="40.7202" r="3.45896" fill="#F4A627"/>
<circle cx="77.6158" cy="40.7202" r="3.45896" fill="#F4A627"/>
<circle cx="96.0635" cy="40.7202" r="3.45896" fill="#F4A627"/>
<circle cx="114.511" cy="40.7202" r="3.45896" fill="#F4A627"/>
<circle cx="132.959" cy="40.7202" r="3.45896" fill="#F4A627"/>
<circle cx="151.407" cy="40.7202" r="3.45896" fill="#F4A627"/>
<circle cx="169.855" cy="40.7202" r="3.45896" fill="#F4A627"/>
<circle cx="188.302" cy="40.7202" r="3.45896" fill="#F4A627"/>
<circle cx="206.75" cy="40.7202" r="3.45896" fill="#F4A627"/>
<circle cx="225.198" cy="40.7202" r="3.45896" fill="#F4A627"/>
<circle cx="243.646" cy="40.7202" r="3.45896" fill="#F4A627"/>
<circle cx="262.093" cy="40.7202" r="3.45896" fill="#F4A627"/>
<circle cx="280.541" cy="40.7202" r="3.45896" fill="#F4A627"/>
<circle cx="3.82468" cy="59.1679" r="3.45896" fill="#F4A627"/>
<circle cx="22.2724" cy="59.1679" r="3.45896" fill="#F4A627"/>
<circle cx="40.7202" cy="59.1679" r="3.45896" fill="#F4A627"/>
<circle cx="59.1679" cy="59.1679" r="3.45896" fill="#F4A627"/>
<circle cx="77.6158" cy="59.1679" r="3.45896" fill="#F4A627"/>
<circle cx="96.0635" cy="59.1679" r="3.45896" fill="#F4A627"/>
<circle cx="114.511" cy="59.1679" r="3.45896" fill="#F4A627"/>
<circle cx="132.959" cy="59.1679" r="3.45896" fill="#F4A627"/>
<circle cx="151.407" cy="59.1679" r="3.45896" fill="#F4A627"/>
<circle cx="169.855" cy="59.1679" r="3.45896" fill="#F4A627"/>
<circle cx="188.302" cy="59.1679" r="3.45896" fill="#F4A627"/>
<circle cx="206.75" cy="59.1679" r="3.45896" fill="#F4A627"/>
<circle cx="225.198" cy="59.1679" r="3.45896" fill="#F4A627"/>
<circle cx="243.646" cy="59.1679" r="3.45896" fill="#F4A627"/>
<circle cx="262.093" cy="59.1679" r="3.45896" fill="#F4A627"/>
<circle cx="280.541" cy="59.1679" r="3.45896" fill="#F4A627"/>
<circle cx="3.82468" cy="77.6157" r="3.45896" fill="#F4A627"/>
<circle cx="22.2724" cy="77.6157" r="3.45896" fill="#F4A627"/>
<circle cx="40.7202" cy="77.6157" r="3.45896" fill="#F4A627"/>
<circle cx="59.1679" cy="77.6157" r="3.45896" fill="#F4A627"/>
<circle cx="77.6158" cy="77.6157" r="3.45896" fill="#F4A627"/>
<circle cx="96.0635" cy="77.6157" r="3.45896" fill="#F4A627"/>
<circle cx="114.511" cy="77.6157" r="3.45896" fill="#F4A627"/>
<circle cx="132.959" cy="77.6157" r="3.45896" fill="#F4A627"/>
<circle cx="151.407" cy="77.6157" r="3.45896" fill="#F4A627"/>
<circle cx="169.855" cy="77.6157" r="3.45896" fill="#F4A627"/>
<circle cx="188.302" cy="77.6157" r="3.45896" fill="#F4A627"/>
<circle cx="206.75" cy="77.6157" r="3.45896" fill="#F4A627"/>
<circle cx="225.198" cy="77.6157" r="3.45896" fill="#F4A627"/>
<circle cx="243.646" cy="77.6157" r="3.45896" fill="#F4A627"/>
<circle cx="262.093" cy="77.6157" r="3.45896" fill="#F4A627"/>
<circle cx="280.541" cy="77.6157" r="3.45896" fill="#F4A627"/>
<circle cx="3.82468" cy="96.0634" r="3.45896" fill="#F4A627"/>
<circle cx="22.2724" cy="96.0634" r="3.45896" fill="#F4A627"/>
<circle cx="40.7202" cy="96.0634" r="3.45896" fill="#F4A627"/>
<circle cx="59.1679" cy="96.0634" r="3.45896" fill="#F4A627"/>
<circle cx="77.6158" cy="96.0634" r="3.45896" fill="#F4A627"/>
<circle cx="96.0635" cy="96.0634" r="3.45896" fill="#F4A627"/>
<circle cx="114.511" cy="96.0634" r="3.45896" fill="#F4A627"/>
<circle cx="132.959" cy="96.0634" r="3.45896" fill="#F4A627"/>
<circle cx="151.407" cy="96.0634" r="3.45896" fill="#F4A627"/>
<circle cx="169.855" cy="96.0634" r="3.45896" fill="#F4A627"/>
<circle cx="188.302" cy="96.0634" r="3.45896" fill="#F4A627"/>
<circle cx="206.75" cy="96.0634" r="3.45896" fill="#F4A627"/>
<circle cx="225.198" cy="96.0634" r="3.45896" fill="#F4A627"/>
<circle cx="243.646" cy="96.0634" r="3.45896" fill="#F4A627"/>
<circle cx="262.093" cy="96.0634" r="3.45896" fill="#F4A627"/>
<circle cx="280.541" cy="96.0634" r="3.45896" fill="#F4A627"/>
<circle cx="3.82468" cy="114.511" r="3.45896" fill="#F4A627"/>
<circle cx="22.2724" cy="114.511" r="3.45896" fill="#F4A627"/>
<circle cx="40.7202" cy="114.511" r="3.45896" fill="#F4A627"/>
<circle cx="59.1679" cy="114.511" r="3.45896" fill="#F4A627"/>
<circle cx="77.6158" cy="114.511" r="3.45896" fill="#F4A627"/>
<circle cx="96.0635" cy="114.511" r="3.45896" fill="#F4A627"/>
<circle cx="114.511" cy="114.511" r="3.45896" fill="#F4A627"/>
<circle cx="132.959" cy="114.511" r="3.45896" fill="#F4A627"/>
<circle cx="151.407" cy="114.511" r="3.45896" fill="#F4A627"/>
<circle cx="169.855" cy="114.511" r="3.45896" fill="#F4A627"/>
<circle cx="188.302" cy="114.511" r="3.45896" fill="#F4A627"/>
<circle cx="206.75" cy="114.511" r="3.45896" fill="#F4A627"/>
<circle cx="225.198" cy="114.511" r="3.45896" fill="#F4A627"/>
<circle cx="243.646" cy="114.511" r="3.45896" fill="#F4A627"/>
<circle cx="262.093" cy="114.511" r="3.45896" fill="#F4A627"/>
<circle cx="280.541" cy="114.511" r="3.45896" fill="#F4A627"/>
<circle cx="3.82468" cy="132.959" r="3.45896" fill="#F4A627"/>
<circle cx="22.2724" cy="132.959" r="3.45896" fill="#F4A627"/>
<circle cx="40.7202" cy="132.959" r="3.45896" fill="#F4A627"/>
<circle cx="59.1679" cy="132.959" r="3.45896" fill="#F4A627"/>
<circle cx="77.6158" cy="132.959" r="3.45896" fill="#F4A627"/>
<circle cx="96.0635" cy="132.959" r="3.45896" fill="#F4A627"/>
<circle cx="114.511" cy="132.959" r="3.45896" fill="#F4A627"/>
<circle cx="132.959" cy="132.959" r="3.45896" fill="#F4A627"/>
<circle cx="151.407" cy="132.959" r="3.45896" fill="#F4A627"/>
<circle cx="169.855" cy="132.959" r="3.45896" fill="#F4A627"/>
<circle cx="188.302" cy="132.959" r="3.45896" fill="#F4A627"/>
<circle cx="206.75" cy="132.959" r="3.45896" fill="#F4A627"/>
<circle cx="225.198" cy="132.959" r="3.45896" fill="#F4A627"/>
<circle cx="243.646" cy="132.959" r="3.45896" fill="#F4A627"/>
<circle cx="262.093" cy="132.959" r="3.45896" fill="#F4A627"/>
<circle cx="280.541" cy="132.959" r="3.45896" fill="#F4A627"/>
<circle cx="3.82468" cy="151.407" r="3.45896" fill="#F4A627"/>
<circle cx="22.2724" cy="151.407" r="3.45896" fill="#F4A627"/>
<circle cx="40.7202" cy="151.407" r="3.45896" fill="#F4A627"/>
<circle cx="59.1679" cy="151.407" r="3.45896" fill="#F4A627"/>
<circle cx="77.6158" cy="151.407" r="3.45896" fill="#F4A627"/>
<circle cx="96.0635" cy="151.407" r="3.45896" fill="#F4A627"/>
<circle cx="114.511" cy="151.407" r="3.45896" fill="#F4A627"/>
<circle cx="132.959" cy="151.407" r="3.45896" fill="#F4A627"/>
<circle cx="151.407" cy="151.407" r="3.45896" fill="#F4A627"/>
<circle cx="169.855" cy="151.407" r="3.45896" fill="#F4A627"/>
<circle cx="188.302" cy="151.407" r="3.45896" fill="#F4A627"/>
<circle cx="206.75" cy="151.407" r="3.45896" fill="#F4A627"/>
<circle cx="225.198" cy="151.407" r="3.45896" fill="#F4A627"/>
<circle cx="243.646" cy="151.407" r="3.45896" fill="#F4A627"/>
<circle cx="262.093" cy="151.407" r="3.45896" fill="#F4A627"/>
<circle cx="280.541" cy="151.407" r="3.45896" fill="#F4A627"/>
<circle cx="3.82468" cy="169.854" r="3.45896" fill="#F4A627"/>
<circle cx="22.2724" cy="169.854" r="3.45896" fill="#F4A627"/>
<circle cx="40.7202" cy="169.854" r="3.45896" fill="#F4A627"/>
<circle cx="59.1679" cy="169.854" r="3.45896" fill="#F4A627"/>
<circle cx="77.6158" cy="169.854" r="3.45896" fill="#F4A627"/>
<circle cx="96.0635" cy="169.854" r="3.45896" fill="#F4A627"/>
<circle cx="114.511" cy="169.854" r="3.45896" fill="#F4A627"/>
<circle cx="132.959" cy="169.854" r="3.45896" fill="#F4A627"/>
<circle cx="151.407" cy="169.854" r="3.45896" fill="#F4A627"/>
<circle cx="169.855" cy="169.854" r="3.45896" fill="#F4A627"/>
<circle cx="188.302" cy="169.854" r="3.45896" fill="#F4A627"/>
<circle cx="206.75" cy="169.854" r="3.45896" fill="#F4A627"/>
<circle cx="225.198" cy="169.854" r="3.45896" fill="#F4A627"/>
<circle cx="243.646" cy="169.854" r="3.45896" fill="#F4A627"/>
<circle cx="262.093" cy="169.854" r="3.45896" fill="#F4A627"/>
<circle cx="280.541" cy="169.854" r="3.45896" fill="#F4A627"/>
<circle cx="3.82468" cy="188.302" r="3.45896" fill="#F4A627"/>
<circle cx="22.2724" cy="188.302" r="3.45896" fill="#F4A627"/>
<circle cx="40.7202" cy="188.302" r="3.45896" fill="#F4A627"/>
<circle cx="59.1679" cy="188.302" r="3.45896" fill="#F4A627"/>
<circle cx="77.6158" cy="188.302" r="3.45896" fill="#F4A627"/>
<circle cx="96.0635" cy="188.302" r="3.45896" fill="#F4A627"/>
<circle cx="114.511" cy="188.302" r="3.45896" fill="#F4A627"/>
<circle cx="132.959" cy="188.302" r="3.45896" fill="#F4A627"/>
<circle cx="151.407" cy="188.302" r="3.45896" fill="#F4A627"/>
<circle cx="169.855" cy="188.302" r="3.45896" fill="#F4A627"/>
<circle cx="188.302" cy="188.302" r="3.45896" fill="#F4A627"/>
<circle cx="206.75" cy="188.302" r="3.45896" fill="#F4A627"/>
<circle cx="225.198" cy="188.302" r="3.45896" fill="#F4A627"/>
<circle cx="243.646" cy="188.302" r="3.45896" fill="#F4A627"/>
<circle cx="262.093" cy="188.302" r="3.45896" fill="#F4A627"/>
<circle cx="280.541" cy="188.302" r="3.45896" fill="#F4A627"/>
<circle cx="3.82468" cy="206.75" r="3.45896" fill="#F4A627"/>
<circle cx="22.2724" cy="206.75" r="3.45896" fill="#F4A627"/>
<circle cx="40.7202" cy="206.75" r="3.45896" fill="#F4A627"/>
<circle cx="59.1679" cy="206.75" r="3.45896" fill="#F4A627"/>
<circle cx="77.6158" cy="206.75" r="3.45896" fill="#F4A627"/>
<circle cx="96.0635" cy="206.75" r="3.45896" fill="#F4A627"/>
<circle cx="114.511" cy="206.75" r="3.45896" fill="#F4A627"/>
<circle cx="132.959" cy="206.75" r="3.45896" fill="#F4A627"/>
<circle cx="151.407" cy="206.75" r="3.45896" fill="#F4A627"/>
<circle cx="169.855" cy="206.75" r="3.45896" fill="#F4A627"/>
<circle cx="188.302" cy="206.75" r="3.45896" fill="#F4A627"/>
<circle cx="206.75" cy="206.75" r="3.45896" fill="#F4A627"/>
<circle cx="225.198" cy="206.75" r="3.45896" fill="#F4A627"/>
<circle cx="243.646" cy="206.75" r="3.45896" fill="#F4A627"/>
<circle cx="262.093" cy="206.75" r="3.45896" fill="#F4A627"/>
<circle cx="280.541" cy="206.75" r="3.45896" fill="#F4A627"/>
<circle cx="3.82468" cy="225.198" r="3.45896" fill="#F4A627"/>
<circle cx="22.2724" cy="225.198" r="3.45896" fill="#F4A627"/>
<circle cx="40.7202" cy="225.198" r="3.45896" fill="#F4A627"/>
<circle cx="59.1679" cy="225.198" r="3.45896" fill="#F4A627"/>
<circle cx="77.6158" cy="225.198" r="3.45896" fill="#F4A627"/>
<circle cx="96.0635" cy="225.198" r="3.45896" fill="#F4A627"/>
<circle cx="114.511" cy="225.198" r="3.45896" fill="#F4A627"/>
<circle cx="132.959" cy="225.198" r="3.45896" fill="#F4A627"/>
<circle cx="151.407" cy="225.198" r="3.45896" fill="#F4A627"/>
<circle cx="169.855" cy="225.198" r="3.45896" fill="#F4A627"/>
<circle cx="188.302" cy="225.198" r="3.45896" fill="#F4A627"/>
<circle cx="206.75" cy="225.198" r="3.45896" fill="#F4A627"/>
<circle cx="225.198" cy="225.198" r="3.45896" fill="#F4A627"/>
<circle cx="243.646" cy="225.198" r="3.45896" fill="#F4A627"/>
<circle cx="262.093" cy="225.198" r="3.45896" fill="#F4A627"/>
<circle cx="280.541" cy="225.198" r="3.45896" fill="#F4A627"/>
<circle cx="3.82468" cy="243.645" r="3.45896" fill="#F4A627"/>
<circle cx="22.2724" cy="243.645" r="3.45896" fill="#F4A627"/>
<circle cx="40.7202" cy="243.645" r="3.45896" fill="#F4A627"/>
<circle cx="59.1679" cy="243.645" r="3.45896" fill="#F4A627"/>
<circle cx="77.6158" cy="243.645" r="3.45896" fill="#F4A627"/>
<circle cx="96.0635" cy="243.645" r="3.45896" fill="#F4A627"/>
<circle cx="114.511" cy="243.645" r="3.45896" fill="#F4A627"/>
<circle cx="132.959" cy="243.645" r="3.45896" fill="#F4A627"/>
<circle cx="151.407" cy="243.645" r="3.45896" fill="#F4A627"/>
<circle cx="169.855" cy="243.645" r="3.45896" fill="#F4A627"/>
<circle cx="188.302" cy="243.645" r="3.45896" fill="#F4A627"/>
<circle cx="206.75" cy="243.645" r="3.45896" fill="#F4A627"/>
<circle cx="225.198" cy="243.645" r="3.45896" fill="#F4A627"/>
<circle cx="243.646" cy="243.645" r="3.45896" fill="#F4A627"/>
<circle cx="262.093" cy="243.645" r="3.45896" fill="#F4A627"/>
<circle cx="280.541" cy="243.645" r="3.45896" fill="#F4A627"/>
<circle cx="3.82468" cy="262.093" r="3.45896" fill="#F4A627"/>
<circle cx="22.2724" cy="262.093" r="3.45896" fill="#F4A627"/>
<circle cx="40.7202" cy="262.093" r="3.45896" fill="#F4A627"/>
<circle cx="59.1679" cy="262.093" r="3.45896" fill="#F4A627"/>
<circle cx="77.6158" cy="262.093" r="3.45896" fill="#F4A627"/>
<circle cx="96.0635" cy="262.093" r="3.45896" fill="#F4A627"/>
<circle cx="114.511" cy="262.093" r="3.45896" fill="#F4A627"/>
<circle cx="132.959" cy="262.093" r="3.45896" fill="#F4A627"/>
<circle cx="151.407" cy="262.093" r="3.45896" fill="#F4A627"/>
<circle cx="169.855" cy="262.093" r="3.45896" fill="#F4A627"/>
<circle cx="188.302" cy="262.093" r="3.45896" fill="#F4A627"/>
<circle cx="206.75" cy="262.093" r="3.45896" fill="#F4A627"/>
<circle cx="225.198" cy="262.093" r="3.45896" fill="#F4A627"/>
<circle cx="243.646" cy="262.093" r="3.45896" fill="#F4A627"/>
<circle cx="262.093" cy="262.093" r="3.45896" fill="#F4A627"/>
<circle cx="280.541" cy="262.093" r="3.45896" fill="#F4A627"/>
<circle cx="3.82468" cy="280.541" r="3.45896" fill="#F4A627"/>
<circle cx="22.2724" cy="280.541" r="3.45896" fill="#F4A627"/>
<circle cx="40.7202" cy="280.541" r="3.45896" fill="#F4A627"/>
<circle cx="59.1679" cy="280.541" r="3.45896" fill="#F4A627"/>
<circle cx="77.6158" cy="280.541" r="3.45896" fill="#F4A627"/>
<circle cx="96.0635" cy="280.541" r="3.45896" fill="#F4A627"/>
<circle cx="114.511" cy="280.541" r="3.45896" fill="#F4A627"/>
<circle cx="132.959" cy="280.541" r="3.45896" fill="#F4A627"/>
<circle cx="151.407" cy="280.541" r="3.45896" fill="#F4A627"/>
<circle cx="169.855" cy="280.541" r="3.45896" fill="#F4A627"/>
<circle cx="188.302" cy="280.541" r="3.45896" fill="#F4A627"/>
<circle cx="206.75" cy="280.541" r="3.45896" fill="#F4A627"/>
<circle cx="225.198" cy="280.541" r="3.45896" fill="#F4A627"/>
<circle cx="243.646" cy="280.541" r="3.45896" fill="#F4A627"/>
<circle cx="262.093" cy="280.541" r="3.45896" fill="#F4A627"/>
<circle cx="280.541" cy="280.541" r="3.45896" fill="#F4A627"/>
</svg>
