<svg width="1216" height="819" viewBox="0 0 1216 819" fill="none" xmlns="http://www.w3.org/2000/svg">
<path d="M1216 61.4234V59.5447H1158.42V0H1156.54V59.5541H1100.48V0H1098.6V59.5541H1042.52V0H1040.65V59.5541H984.581V0H982.702V59.5541H926.627V0H924.748V59.5541H868.683V0H866.804V59.5541H810.729V0H808.851V59.5541H752.785V0H750.906V59.5541H694.832V0H692.953V59.5541H636.888V0H635.009V59.5541H578.934V0H577.055V59.5541H520.99V0H519.111V59.5541H463.036V0H461.158V59.5541H405.083V0H403.204V59.5541H347.139V0H345.26V59.5541H289.195V0H287.316V59.5541H231.288V0H229.409V59.5541H173.297V0H171.418V59.5541H115.343V0H113.465V59.5541H57.3993V0H55.5204V59.5541H0V61.4328H55.5204V122.762H0V124.641H55.5204V185.989H0V187.868H55.5204V249.207H0V251.085H55.5204V312.415H0V314.293H55.5204V375.632H0V377.511H55.5204V438.84H0V440.719H55.5204V502.048H0V503.927H55.5204V565.266H0V567.145H55.5204V628.418H0V630.296H55.5204V691.635H0V693.514H55.5204V754.843H0V756.722H55.5204V819H57.3993V756.722H113.465V819H115.343V756.722H171.418V819H173.297V756.722H229.409V819H231.288V756.722H287.363V819H289.242V756.722H345.307V819H347.186V756.722H403.204V819H405.083V756.722H461.148V819H463.027V756.722H519.102V819H520.981V756.722H577.046V819H578.925V756.722H634.999V819H636.878V756.722H692.943V819H694.822V756.722H750.897V819H752.776V756.722H808.851V819H810.729V756.722H866.804V819H868.683V756.722H924.748V819H926.627V756.722H982.702V819H984.581V756.722H1040.65V819H1042.52V756.722H1098.6V819H1100.48V756.722H1156.54V819H1158.42V756.722H1216V754.843H1158.42V693.542H1216V691.663H1158.42V630.296H1216V628.418H1158.42V567.116H1216V565.238H1158.42V503.899H1216V502.02H1158.42V440.691H1216V438.812H1158.42V377.483H1216V375.604H1158.42V314.265H1216V312.386H1158.42V251.057H1216V249.178H1158.42V187.868H1216V185.989H1158.42V124.631H1216V122.753H1158.42V61.4234H1216ZM1098.57 61.4234V122.753H1042.5V61.4234H1098.57ZM405.083 377.483H461.148V438.812H405.083V377.483ZM403.204 438.812H347.139V377.483H403.204V438.812ZM463.027 377.483H519.102V438.812H463.036L463.027 377.483ZM520.981 377.483H577.046V438.812H520.99L520.981 377.483ZM578.925 377.483H634.999V438.812H578.934L578.925 377.483ZM636.878 377.483H692.943V438.812H636.888L636.878 377.483ZM694.822 377.483H750.897V438.812H694.832L694.822 377.483ZM752.776 377.483H808.851V438.812H752.785L752.776 377.483ZM810.72 377.483H866.795V438.812H810.729L810.72 377.483ZM810.72 375.604V314.265H866.795V375.604H810.72ZM808.841 375.604H752.785V314.265H808.851L808.841 375.604ZM750.897 375.604H694.832V314.265H750.906L750.897 375.604ZM692.943 375.604H636.888V314.265H692.953L692.943 375.604ZM634.999 375.604H578.934V314.265H635.009L634.999 375.604ZM577.046 375.604H520.99V314.265H577.055L577.046 375.604ZM519.102 375.604H463.036V314.265H519.111L519.102 375.604ZM461.148 375.604H405.083V314.265H461.148V375.604ZM403.204 375.604H347.139V314.265H403.204V375.604ZM345.25 375.604H289.195V314.265H345.26L345.25 375.604ZM345.25 377.483V438.812H289.195V377.483H345.25ZM345.25 440.691V502.02H289.195V440.691H345.25ZM347.129 440.691H403.204V502.02H347.139L347.129 440.691ZM405.083 440.691H461.148V502.02H405.083V440.691ZM463.027 440.691H519.102V502.02H463.036L463.027 440.691ZM520.981 440.691H577.046V502.02H520.99L520.981 440.691ZM578.925 440.691H634.999V502.02H578.934L578.925 440.691ZM636.878 440.691H692.943V502.02H636.888L636.878 440.691ZM694.822 440.691H750.897V502.02H694.832L694.822 440.691ZM752.776 440.691H808.851V502.02H752.785L752.776 440.691ZM810.72 440.691H866.795V502.02H810.729L810.72 440.691ZM868.674 440.691H924.739V502.02H868.683L868.674 440.691ZM868.674 438.812V377.483H924.739V438.812H868.674ZM868.674 375.604V314.265H924.739V375.604H868.674ZM868.674 312.386V251.057H924.739V312.386H868.674ZM866.795 312.386H810.729V251.057H866.804L866.795 312.386ZM808.841 312.386H752.785V251.057H808.851L808.841 312.386ZM750.897 312.386H694.832V251.057H750.906L750.897 312.386ZM692.943 312.386H636.888V251.057H692.953L692.943 312.386ZM634.999 312.386H578.934V251.057H635.009L634.999 312.386ZM577.046 312.386H520.99V251.057H577.055L577.046 312.386ZM519.102 312.386H463.036V251.057H519.111L519.102 312.386ZM461.148 312.386H405.083V251.057H461.148V312.386ZM403.204 312.386H347.139V251.057H403.204V312.386ZM345.25 312.386H289.195V251.057H345.26L345.25 312.386ZM287.306 312.386H231.288V251.057H287.363L287.306 312.386ZM287.306 314.265V375.604H231.288V314.265H287.306ZM287.306 377.483V438.812H231.288V377.483H287.306ZM287.306 440.691V502.02H231.288V440.691H287.306ZM287.306 503.899V565.238H231.288V503.899H287.306ZM289.185 503.899H345.25V565.238H289.195L289.185 503.899ZM347.129 503.899H403.204V565.238H347.139L347.129 503.899ZM405.083 503.899H461.148V565.238H405.083V503.899ZM463.027 503.899H519.102V565.238H463.036L463.027 503.899ZM520.981 503.899H577.046V565.238H520.99L520.981 503.899ZM578.925 503.899H634.999V565.238H578.934L578.925 503.899ZM636.878 503.899H692.943V565.238H636.888L636.878 503.899ZM694.822 503.899H750.897V565.238H694.832L694.822 503.899ZM752.776 503.899H808.851V565.238H752.785L752.776 503.899ZM810.72 503.899H866.795V565.238H810.729L810.72 503.899ZM868.674 503.899H924.739V565.238H868.683L868.674 503.899ZM926.618 503.899H982.692V565.238H926.618V503.899ZM926.618 502.02V440.691H982.692V502.02H926.618ZM926.618 438.812V377.483H982.692V438.812H926.618ZM926.618 375.604V314.265H982.692V375.604H926.618ZM926.618 312.386V251.057H982.692V312.386H926.618ZM926.618 249.178V187.868H982.692V249.207L926.618 249.178ZM924.739 249.178H868.683V187.868H924.748L924.739 249.178ZM866.795 249.178H810.729V187.868H866.804L866.795 249.178ZM808.841 249.178H752.785V187.868H808.851L808.841 249.178ZM750.897 249.178H694.832V187.868H750.906L750.897 249.178ZM692.943 249.178H636.888V187.868H692.953L692.943 249.178ZM634.999 249.178H578.934V187.868H635.009L634.999 249.178ZM577.046 249.178H520.99V187.868H577.055L577.046 249.178ZM519.102 249.178H463.036V187.868H519.111L519.102 249.178ZM461.148 249.178H405.083V187.868H461.148V249.178ZM403.204 249.178H347.139V187.868H403.204V249.178ZM345.25 249.178H289.195V187.868H345.26L345.25 249.178ZM287.306 249.178H231.288V187.868H287.363L287.306 249.178ZM229.353 249.178H173.297V187.868H229.409L229.353 249.178ZM229.353 251.057V312.386H173.297V251.057H229.353ZM229.353 314.265V375.604H173.297V314.265H229.353ZM229.353 377.483V438.812H173.297V377.483H229.353ZM229.353 440.691V502.02H173.297V440.691H229.353ZM229.353 503.899V565.238H173.297V503.899H229.353ZM229.353 567.116V628.418H173.297V567.116H229.353ZM231.232 567.116H287.306V628.418H231.288L231.232 567.116ZM289.185 567.116H345.25V628.418H289.195L289.185 567.116ZM347.129 567.116H403.204V628.418H347.139L347.129 567.116ZM405.083 567.116H461.148V628.418H405.083V567.116ZM463.027 567.116H519.102V628.418H463.036L463.027 567.116ZM520.981 567.116H577.046V628.418H520.99L520.981 567.116ZM578.925 567.116H634.999V628.418H578.934L578.925 567.116ZM636.878 567.116H692.943V628.418H636.888L636.878 567.116ZM694.822 567.116H750.897V628.418H694.832L694.822 567.116ZM752.776 567.116H808.851V628.418H752.785L752.776 567.116ZM810.72 567.116H866.795V628.418H810.729L810.72 567.116ZM868.674 567.116H924.739V628.418H868.683L868.674 567.116ZM926.618 567.116H982.692V628.418H926.618V567.116ZM984.571 567.116H1040.64V628.418H984.571V567.116ZM984.571 565.238V503.899H1040.64V565.238H984.571ZM984.571 502.02V440.691H1040.64V502.02H984.571ZM984.571 438.812V377.483H1040.64V438.812H984.571ZM984.571 375.604V314.265H1040.64V375.604H984.571ZM984.571 312.386V251.057H1040.64V312.386H984.571ZM984.571 249.178V187.868H1040.64V249.207L984.571 249.178ZM984.571 185.961V124.631H1040.64V185.989L984.571 185.961ZM982.692 185.961H926.618V124.631H982.692V185.961ZM924.739 185.961H868.683V124.631H924.748L924.739 185.961ZM866.795 185.961H810.729V124.631H866.804L866.795 185.961ZM808.841 185.961H752.785V124.631H808.851L808.841 185.961ZM750.897 185.961H694.832V124.631H750.906L750.897 185.961ZM692.943 185.961H636.888V124.631H692.953L692.943 185.961ZM634.999 185.961H578.934V124.631H635.009L634.999 185.961ZM577.046 185.961H520.99V124.631H577.055L577.046 185.961ZM519.102 185.961H463.036V124.631H519.111L519.102 185.961ZM461.148 185.961H405.083V124.631H461.148V185.961ZM403.204 185.989H347.139V124.631H403.204V185.989ZM345.25 185.989H289.195V124.631H345.26L345.25 185.989ZM287.306 185.989H231.288V124.631H287.363L287.306 185.989ZM229.409 185.989H173.297V124.631H229.409V185.989ZM171.465 185.989H115.343V124.631H171.418L171.465 185.989ZM171.465 187.868V249.207H115.343V187.868H171.465ZM171.465 251.085V312.415H115.343V251.057L171.465 251.085ZM171.465 314.293V375.632H115.343V314.293H171.465ZM171.465 377.511V438.84H115.343V377.483L171.465 377.511ZM171.465 440.719V502.048H115.343V440.691L171.465 440.719ZM171.465 503.927V565.266H115.343V503.927H171.465ZM171.465 567.145V628.418H115.343V567.116L171.465 567.145ZM171.465 630.353V691.691H115.343V630.296L171.465 630.353ZM173.344 630.353H229.409V691.691H173.297L173.344 630.353ZM231.288 630.296H287.363V691.635H231.288V630.296ZM289.242 630.296H345.307V691.635H289.195L289.242 630.296ZM347.186 630.296H403.204V691.635H347.139L347.186 630.296ZM405.083 630.296H461.148V691.635H405.083V630.296ZM463.027 630.296H519.102V691.635H463.036L463.027 630.296ZM520.981 630.296H577.046V691.635H520.99L520.981 630.296ZM578.925 630.296H634.999V691.635H578.934L578.925 630.296ZM636.878 630.296H692.943V691.635H636.888L636.878 630.296ZM694.822 630.296H750.897V691.635H694.832L694.822 630.296ZM752.776 630.296H808.851V691.635H752.785L752.776 630.296ZM810.72 630.296H866.795V691.635H810.729L810.72 630.296ZM868.674 630.296H924.739V691.635H868.683L868.674 630.296ZM926.618 630.296H982.692V691.635H926.618V630.296ZM984.571 630.296H1040.64V691.635H984.571V630.296ZM1042.52 630.296H1098.59V691.635H1042.52V630.296ZM1042.52 628.418V567.116H1098.59V628.418H1042.52ZM1042.52 565.209V503.871H1098.59V565.209H1042.52ZM1042.52 501.992V440.691H1098.59V502.02L1042.52 501.992ZM1042.52 438.784V377.483H1098.59V438.812L1042.52 438.784ZM1042.52 375.576V314.237H1098.59V375.576H1042.52ZM1042.52 312.358V251.057H1098.59V312.386L1042.52 312.358ZM1042.52 249.15V187.868H1098.59V249.207L1042.52 249.15ZM1042.52 185.933V124.631H1098.59V185.989L1042.52 185.933ZM1040.64 61.3952V122.725H984.571V61.4234L1040.64 61.3952ZM982.692 61.3952V122.725H926.618V61.4234L982.692 61.3952ZM924.739 61.3952V122.725H868.683V61.4234L924.739 61.3952ZM866.795 61.3952V122.725H810.729V61.4234L866.795 61.3952ZM808.841 61.3952V122.725H752.785V61.4234L808.841 61.3952ZM750.897 61.3952V122.725H694.832V61.4234L750.897 61.3952ZM692.943 61.3952V122.725H636.888V61.4234L692.943 61.3952ZM634.999 61.3952V122.725H578.934V61.4234L634.999 61.3952ZM577.046 61.3952V122.725H520.99V61.4234L577.046 61.3952ZM519.102 61.3952V122.725H463.036V61.4234L519.102 61.3952ZM461.148 61.3952V122.725H405.083V61.4234L461.148 61.3952ZM403.204 61.3952V122.725H347.139V61.4234L403.204 61.3952ZM345.25 61.3952V122.725H289.195V61.4234L345.25 61.3952ZM287.306 61.3952V122.725H231.288V61.4234L287.306 61.3952ZM229.353 61.3952V122.725H173.297V61.4234L229.353 61.3952ZM171.409 61.3952V122.725H115.343V61.4234L171.409 61.3952ZM57.3899 61.3952H113.455V122.725H57.3993L57.3899 61.3952ZM57.3899 124.603H113.455V185.989H57.3993L57.3899 124.603ZM57.3899 187.811H113.455V249.15H57.3993L57.3899 187.811ZM57.3899 251.029H113.455V312.358H57.3993L57.3899 251.029ZM57.3899 314.237H113.455V375.576H57.3993L57.3899 314.237ZM57.3899 377.454H113.455V438.784H57.3993L57.3899 377.454ZM57.3899 440.663H113.455V501.992H57.3993L57.3899 440.663ZM57.3899 503.871H113.455V565.209H57.3993L57.3899 503.871ZM57.3899 567.088H113.455V628.418H57.3993L57.3899 567.088ZM57.3899 630.296H113.455V691.635H57.3993L57.3899 630.296ZM57.3899 754.843V693.542H113.455V754.871L57.3899 754.843ZM115.334 754.843V693.542H171.409V754.871L115.334 754.843ZM173.288 754.843V693.542H229.409V754.871L173.288 754.843ZM231.232 754.843V693.542H287.306V754.871L231.232 754.843ZM289.185 754.843V693.542H345.25V754.871L289.185 754.843ZM347.129 754.843V693.542H403.204V754.871L347.129 754.843ZM405.083 754.843V693.542H461.148V754.871L405.083 754.843ZM463.027 754.843V693.542H519.102V754.871L463.027 754.843ZM520.981 754.843V693.542H577.046V754.871L520.981 754.843ZM578.925 754.843V693.542H634.999V754.871L578.925 754.843ZM636.878 754.843V693.542H692.943V754.871L636.878 754.843ZM694.822 754.843V693.542H750.897V754.871L694.822 754.843ZM752.776 754.843V693.542H808.851V754.871L752.776 754.843ZM810.72 754.843V693.542H866.795V754.871L810.72 754.843ZM868.674 754.843V693.542H924.739V754.871L868.674 754.843ZM926.618 754.843V693.542H982.692V754.871L926.618 754.843ZM984.571 754.843V693.542H1040.64V754.871L984.571 754.843ZM1042.52 754.843V693.542H1098.59V754.871L1042.52 754.843ZM1156.53 754.843H1100.47V693.542H1156.53V754.843ZM1156.53 691.635H1100.47V630.296H1156.53V691.635ZM1156.53 628.418H1100.47V567.116H1156.53V628.418ZM1156.53 565.209H1100.47V503.871H1156.53V565.209ZM1156.53 501.992H1100.47V440.691H1156.53V501.992ZM1156.53 438.784H1100.47V377.483H1156.53V438.784ZM1156.53 375.576H1100.47V314.237H1156.53V375.576ZM1156.53 312.358H1100.47V251.057H1156.53V312.358ZM1156.53 249.15H1100.47V187.868H1156.53V249.15ZM1156.53 185.933H1100.47V124.631H1156.53V185.933ZM1156.53 122.725H1100.47V61.4234H1156.53V122.725Z" fill="url(#paint0_diamond_31_111)"/>
<defs>
<radialGradient id="paint0_diamond_31_111" cx="0" cy="0" r="1" gradientUnits="userSpaceOnUse" gradientTransform="translate(1216 -5.38063e-05) rotate(146.528) scale(1457.76 2164.4)">
<stop offset="0.28626" stop-color="#212630" stop-opacity="0.05"/>
<stop offset="0.590045" stop-color="#677796" stop-opacity="0.1"/>
<stop offset="0.811641" stop-color="#212630" stop-opacity="0.05"/>
</radialGradient>
</defs>
</svg>
