<svg width="264" height="84" viewBox="0 0 264 84" fill="none" xmlns="http://www.w3.org/2000/svg">
<rect width="264" height="84" rx="16" fill="white" fill-opacity="0.3"/>
<path d="M92.0469 41H89.5547V34.2969C89.5547 33.5729 89.5859 32.7734 89.6484 31.8984H89.5859C89.4557 32.5859 89.3385 33.0807 89.2344 33.3828L86.6094 41H84.5469L81.875 33.4609C81.8021 33.2578 81.6849 32.737 81.5234 31.8984H81.4531C81.5208 33.0026 81.5547 33.9714 81.5547 34.8047V41H79.2812V29.7969H82.9766L85.2656 36.4375C85.4479 36.9688 85.5807 37.5026 85.6641 38.0391H85.7109C85.8516 37.4193 86 36.8802 86.1562 36.4219L88.4453 29.7969H92.0469V41ZM99.5703 35.2266C99.2734 35.0651 98.9271 34.9844 98.5312 34.9844C97.9948 34.9844 97.5755 35.1823 97.2734 35.5781C96.9714 35.9688 96.8203 36.5026 96.8203 37.1797V41H94.3516V33H96.8203V34.4844H96.8516C97.2422 33.401 97.9453 32.8594 98.9609 32.8594C99.2214 32.8594 99.4245 32.8906 99.5703 32.9531V35.2266ZM100.297 40.7891V38.7891C100.703 39.0339 101.107 39.2161 101.508 39.3359C101.914 39.4557 102.297 39.5156 102.656 39.5156C103.094 39.5156 103.438 39.4557 103.688 39.3359C103.943 39.2161 104.07 39.0339 104.07 38.7891C104.07 38.6328 104.013 38.5026 103.898 38.3984C103.784 38.2943 103.635 38.2031 103.453 38.125C103.276 38.0469 103.081 37.9766 102.867 37.9141C102.654 37.8516 102.448 37.7812 102.25 37.7031C101.932 37.5833 101.651 37.4557 101.406 37.3203C101.167 37.1797 100.964 37.0182 100.797 36.8359C100.635 36.6536 100.51 36.4427 100.422 36.2031C100.339 35.9635 100.297 35.6797 100.297 35.3516C100.297 34.9036 100.393 34.5182 100.586 34.1953C100.784 33.8724 101.044 33.6094 101.367 33.4062C101.695 33.1979 102.068 33.0469 102.484 32.9531C102.906 32.8542 103.344 32.8047 103.797 32.8047C104.151 32.8047 104.51 32.8333 104.875 32.8906C105.24 32.9427 105.599 33.0208 105.953 33.125V35.0312C105.641 34.849 105.305 34.7135 104.945 34.625C104.591 34.5312 104.242 34.4844 103.898 34.4844C103.737 34.4844 103.583 34.5 103.438 34.5312C103.297 34.5573 103.172 34.599 103.062 34.6562C102.953 34.7083 102.867 34.7786 102.805 34.8672C102.742 34.9505 102.711 35.0469 102.711 35.1562C102.711 35.3021 102.758 35.4271 102.852 35.5312C102.945 35.6354 103.068 35.7266 103.219 35.8047C103.37 35.8776 103.536 35.9453 103.719 36.0078C103.906 36.0651 104.091 36.125 104.273 36.1875C104.602 36.3021 104.898 36.4271 105.164 36.5625C105.43 36.6979 105.656 36.8568 105.844 37.0391C106.036 37.2214 106.182 37.4349 106.281 37.6797C106.385 37.9245 106.438 38.2161 106.438 38.5547C106.438 39.0286 106.333 39.4349 106.125 39.7734C105.922 40.1068 105.648 40.3802 105.305 40.5938C104.966 40.8021 104.573 40.9531 104.125 41.0469C103.682 41.1458 103.221 41.1953 102.742 41.1953C101.862 41.1953 101.047 41.0599 100.297 40.7891ZM108.969 41.1953C108.562 41.1953 108.224 41.0703 107.953 40.8203C107.682 40.5703 107.547 40.263 107.547 39.8984C107.547 39.5234 107.685 39.2161 107.961 38.9766C108.242 38.737 108.591 38.6172 109.008 38.6172C109.43 38.6172 109.773 38.7396 110.039 38.9844C110.31 39.224 110.445 39.5286 110.445 39.8984C110.445 40.2786 110.307 40.5911 110.031 40.8359C109.76 41.0755 109.406 41.1953 108.969 41.1953ZM122.305 41H119.555L118.758 38.5078H114.773L113.984 41H111.25L115.328 29.7969H118.32L122.305 41ZM118.18 36.5703L116.977 32.8047C116.888 32.5234 116.826 32.1875 116.789 31.7969H116.727C116.701 32.125 116.635 32.4505 116.531 32.7734L115.312 36.5703H118.18ZM124.711 31.7344C124.294 31.7344 123.953 31.612 123.688 31.3672C123.422 31.1172 123.289 30.8125 123.289 30.4531C123.289 30.0833 123.422 29.7812 123.688 29.5469C123.953 29.3125 124.294 29.1953 124.711 29.1953C125.133 29.1953 125.474 29.3125 125.734 29.5469C126 29.7812 126.133 30.0833 126.133 30.4531C126.133 30.8281 126 31.1354 125.734 31.375C125.474 31.6146 125.133 31.7344 124.711 31.7344ZM125.93 41H123.461V33H125.93V41ZM135.734 41H133.273V36.5547C133.273 35.3151 132.831 34.6953 131.945 34.6953C131.518 34.6953 131.167 34.8594 130.891 35.1875C130.615 35.5156 130.477 35.9323 130.477 36.4375V41H128.008V33H130.477V34.2656H130.508C131.096 33.2917 131.953 32.8047 133.078 32.8047C134.849 32.8047 135.734 33.9036 135.734 36.1016V41ZM144.352 41H142.016V39.8516H141.984C141.448 40.7474 140.654 41.1953 139.602 41.1953C138.826 41.1953 138.214 40.9766 137.766 40.5391C137.323 40.0964 137.102 39.5078 137.102 38.7734C137.102 37.2214 138.021 36.3255 139.859 36.0859L142.031 35.7969C142.031 34.9219 141.557 34.4844 140.609 34.4844C139.656 34.4844 138.75 34.7682 137.891 35.3359V33.4766C138.234 33.2995 138.703 33.1432 139.297 33.0078C139.896 32.8724 140.44 32.8047 140.93 32.8047C143.211 32.8047 144.352 33.9427 144.352 36.2188V41ZM142.031 37.75V37.2109L140.578 37.3984C139.776 37.5026 139.375 37.8646 139.375 38.4844C139.375 38.7656 139.471 38.9974 139.664 39.1797C139.862 39.3568 140.128 39.4453 140.461 39.4453C140.924 39.4453 141.302 39.2865 141.594 38.9688C141.885 38.6458 142.031 38.2396 142.031 37.75ZM150.453 40.5703V38.0703C150.906 38.4505 151.398 38.737 151.93 38.9297C152.461 39.1172 152.997 39.2109 153.539 39.2109C153.857 39.2109 154.133 39.1823 154.367 39.125C154.607 39.0677 154.805 38.9896 154.961 38.8906C155.122 38.7865 155.242 38.6667 155.32 38.5312C155.398 38.3906 155.438 38.2396 155.438 38.0781C155.438 37.8594 155.375 37.6641 155.25 37.4922C155.125 37.3203 154.953 37.1615 154.734 37.0156C154.521 36.8698 154.266 36.7292 153.969 36.5938C153.672 36.4583 153.352 36.3203 153.008 36.1797C152.133 35.8151 151.479 35.3698 151.047 34.8438C150.62 34.3177 150.406 33.6823 150.406 32.9375C150.406 32.3542 150.523 31.8542 150.758 31.4375C150.992 31.0156 151.31 30.6693 151.711 30.3984C152.117 30.1276 152.586 29.9297 153.117 29.8047C153.648 29.6745 154.211 29.6094 154.805 29.6094C155.388 29.6094 155.904 29.6458 156.352 29.7188C156.805 29.7865 157.221 29.8932 157.602 30.0391V32.375C157.414 32.2448 157.208 32.1302 156.984 32.0312C156.766 31.9323 156.539 31.8516 156.305 31.7891C156.07 31.7214 155.836 31.6719 155.602 31.6406C155.372 31.6094 155.154 31.5938 154.945 31.5938C154.659 31.5938 154.398 31.6224 154.164 31.6797C153.93 31.7318 153.732 31.8073 153.57 31.9062C153.409 32.0052 153.284 32.125 153.195 32.2656C153.107 32.401 153.062 32.5547 153.062 32.7266C153.062 32.9141 153.112 33.0833 153.211 33.2344C153.31 33.3802 153.451 33.5208 153.633 33.6562C153.815 33.7865 154.036 33.9167 154.297 34.0469C154.557 34.1719 154.852 34.3021 155.18 34.4375C155.628 34.625 156.029 34.8255 156.383 35.0391C156.742 35.2474 157.049 35.4844 157.305 35.75C157.56 36.0156 157.755 36.3203 157.891 36.6641C158.026 37.0026 158.094 37.3984 158.094 37.8516C158.094 38.4766 157.974 39.0026 157.734 39.4297C157.5 39.8516 157.18 40.1953 156.773 40.4609C156.367 40.7214 155.893 40.9089 155.352 41.0234C154.815 41.138 154.247 41.1953 153.648 41.1953C153.034 41.1953 152.448 41.1432 151.891 41.0391C151.339 40.9349 150.859 40.7786 150.453 40.5703ZM172.398 41H169.938V36.4375C169.938 35.276 169.51 34.6953 168.656 34.6953C168.25 34.6953 167.919 34.8698 167.664 35.2188C167.409 35.5677 167.281 36.0026 167.281 36.5234V41H164.812V36.3906C164.812 35.2604 164.393 34.6953 163.555 34.6953C163.133 34.6953 162.794 34.862 162.539 35.1953C162.289 35.5286 162.164 35.9818 162.164 36.5547V41H159.695V33H162.164V34.25H162.195C162.451 33.8229 162.807 33.4766 163.266 33.2109C163.729 32.9401 164.234 32.8047 164.781 32.8047C165.911 32.8047 166.685 33.3021 167.102 34.2969C167.711 33.3021 168.607 32.8047 169.789 32.8047C171.529 32.8047 172.398 33.8776 172.398 36.0234V41ZM175.602 31.7344C175.185 31.7344 174.844 31.612 174.578 31.3672C174.312 31.1172 174.18 30.8125 174.18 30.4531C174.18 30.0833 174.312 29.7812 174.578 29.5469C174.844 29.3125 175.185 29.1953 175.602 29.1953C176.023 29.1953 176.365 29.3125 176.625 29.5469C176.891 29.7812 177.023 30.0833 177.023 30.4531C177.023 30.8281 176.891 31.1354 176.625 31.375C176.365 31.6146 176.023 31.7344 175.602 31.7344ZM176.82 41H174.352V33H176.82V41ZM183.734 40.9062C183.37 41.099 182.82 41.1953 182.086 41.1953C180.346 41.1953 179.477 40.2917 179.477 38.4844V34.8203H178.18V33H179.477V31.2734L181.938 30.5703V33H183.734V34.8203H181.938V38.0547C181.938 38.888 182.268 39.3047 182.93 39.3047C183.19 39.3047 183.458 39.2292 183.734 39.0781V40.9062ZM192.812 41H190.352V36.4531C190.352 35.2812 189.924 34.6953 189.07 34.6953C188.633 34.6953 188.279 34.8594 188.008 35.1875C187.737 35.5156 187.602 35.9323 187.602 36.4375V41H185.133V29.1562H187.602V34.1875H187.633C188.237 33.2656 189.057 32.8047 190.094 32.8047C191.906 32.8047 192.812 33.8984 192.812 36.0859V41Z" fill="white"/>
<path d="M80.0859 54.8242V58H79.1016V49.5977H81.4102C82.3086 49.5977 83.0039 49.8164 83.4961 50.2539C83.9922 50.6914 84.2402 51.3086 84.2402 52.1055C84.2402 52.9023 83.9648 53.5547 83.4141 54.0625C82.8672 54.5703 82.127 54.8242 81.1934 54.8242H80.0859ZM80.0859 50.4883V53.9336H81.1172C81.7969 53.9336 82.3145 53.7793 82.6699 53.4707C83.0293 53.1582 83.209 52.7188 83.209 52.1523C83.209 51.043 82.5527 50.4883 81.2402 50.4883H80.0859ZM88.8281 52.9727C88.6602 52.8438 88.418 52.7793 88.1016 52.7793C87.6914 52.7793 87.3477 52.9727 87.0703 53.3594C86.7969 53.7461 86.6602 54.2734 86.6602 54.9414V58H85.6992V52H86.6602V53.2363H86.6836C86.8203 52.8145 87.0293 52.4863 87.3105 52.252C87.5918 52.0137 87.9062 51.8945 88.2539 51.8945C88.5039 51.8945 88.6953 51.9219 88.8281 51.9766V52.9727ZM92.3789 58.1406C91.4922 58.1406 90.7832 57.8613 90.252 57.3027C89.7246 56.7402 89.4609 55.9961 89.4609 55.0703C89.4609 54.0625 89.7363 53.2754 90.2871 52.709C90.8379 52.1426 91.582 51.8594 92.5195 51.8594C93.4141 51.8594 94.1113 52.1348 94.6113 52.6855C95.1152 53.2363 95.3672 54 95.3672 54.9766C95.3672 55.9336 95.0957 56.7012 94.5527 57.2793C94.0137 57.8535 93.2891 58.1406 92.3789 58.1406ZM92.4492 52.668C91.832 52.668 91.3438 52.8789 90.9844 53.3008C90.625 53.7188 90.4453 54.2969 90.4453 55.0352C90.4453 55.7461 90.627 56.3066 90.9902 56.7168C91.3535 57.127 91.8398 57.332 92.4492 57.332C93.0703 57.332 93.5469 57.1309 93.8789 56.7285C94.2148 56.3262 94.3828 55.7539 94.3828 55.0117C94.3828 54.2617 94.2148 53.6836 93.8789 53.2773C93.5469 52.8711 93.0703 52.668 92.4492 52.668ZM99.8672 49.9609C99.6797 49.8555 99.4668 49.8027 99.2285 49.8027C98.5566 49.8027 98.2207 50.2266 98.2207 51.0742V52H99.627V52.8203H98.2207V58H97.2656V52.8203H96.2402V52H97.2656V51.0273C97.2656 50.3984 97.4473 49.9023 97.8105 49.5391C98.1738 49.1719 98.627 48.9883 99.1699 48.9883C99.4629 48.9883 99.6953 49.0234 99.8672 49.0938V49.9609ZM105.486 55.2402H101.25C101.266 55.9082 101.445 56.4238 101.789 56.7871C102.133 57.1504 102.605 57.332 103.207 57.332C103.883 57.332 104.504 57.1094 105.07 56.6641V57.5664C104.543 57.9492 103.846 58.1406 102.979 58.1406C102.131 58.1406 101.465 57.8691 100.98 57.3262C100.496 56.7793 100.254 56.0117 100.254 55.0234C100.254 54.0898 100.518 53.3301 101.045 52.7441C101.576 52.1543 102.234 51.8594 103.02 51.8594C103.805 51.8594 104.412 52.1133 104.842 52.6211C105.271 53.1289 105.486 53.834 105.486 54.7363V55.2402ZM104.502 54.4258C104.498 53.8711 104.363 53.4395 104.098 53.1309C103.836 52.8223 103.471 52.668 103.002 52.668C102.549 52.668 102.164 52.8301 101.848 53.1543C101.531 53.4785 101.336 53.9023 101.262 54.4258H104.502ZM106.582 57.7832V56.752C107.105 57.1387 107.682 57.332 108.311 57.332C109.154 57.332 109.576 57.0508 109.576 56.4883C109.576 56.3281 109.539 56.1934 109.465 56.084C109.395 55.9707 109.297 55.8711 109.172 55.7852C109.051 55.6992 108.906 55.623 108.738 55.5566C108.574 55.4863 108.396 55.4141 108.205 55.3398C107.939 55.2344 107.705 55.1289 107.502 55.0234C107.303 54.9141 107.135 54.793 106.998 54.6602C106.865 54.5234 106.764 54.3691 106.693 54.1973C106.627 54.0254 106.594 53.8242 106.594 53.5938C106.594 53.3125 106.658 53.0645 106.787 52.8496C106.916 52.6309 107.088 52.4492 107.303 52.3047C107.518 52.1562 107.762 52.0449 108.035 51.9707C108.312 51.8965 108.598 51.8594 108.891 51.8594C109.41 51.8594 109.875 51.9492 110.285 52.1289V53.1016C109.844 52.8125 109.336 52.668 108.762 52.668C108.582 52.668 108.42 52.6895 108.275 52.7324C108.131 52.7715 108.006 52.8281 107.9 52.9023C107.799 52.9766 107.719 53.0664 107.66 53.1719C107.605 53.2734 107.578 53.3867 107.578 53.5117C107.578 53.668 107.605 53.7988 107.66 53.9043C107.719 54.0098 107.803 54.1035 107.912 54.1855C108.021 54.2676 108.154 54.3418 108.311 54.4082C108.467 54.4746 108.645 54.5469 108.844 54.625C109.109 54.7266 109.348 54.832 109.559 54.9414C109.77 55.0469 109.949 55.168 110.098 55.3047C110.246 55.4375 110.359 55.5918 110.438 55.7676C110.52 55.9434 110.561 56.1523 110.561 56.3945C110.561 56.6914 110.494 56.9492 110.361 57.168C110.232 57.3867 110.059 57.5684 109.84 57.7129C109.621 57.8574 109.369 57.9648 109.084 58.0352C108.799 58.1055 108.5 58.1406 108.188 58.1406C107.57 58.1406 107.035 58.0215 106.582 57.7832ZM111.68 57.7832V56.752C112.203 57.1387 112.779 57.332 113.408 57.332C114.252 57.332 114.674 57.0508 114.674 56.4883C114.674 56.3281 114.637 56.1934 114.562 56.084C114.492 55.9707 114.395 55.8711 114.27 55.7852C114.148 55.6992 114.004 55.623 113.836 55.5566C113.672 55.4863 113.494 55.4141 113.303 55.3398C113.037 55.2344 112.803 55.1289 112.6 55.0234C112.4 54.9141 112.232 54.793 112.096 54.6602C111.963 54.5234 111.861 54.3691 111.791 54.1973C111.725 54.0254 111.691 53.8242 111.691 53.5938C111.691 53.3125 111.756 53.0645 111.885 52.8496C112.014 52.6309 112.186 52.4492 112.4 52.3047C112.615 52.1562 112.859 52.0449 113.133 51.9707C113.41 51.8965 113.695 51.8594 113.988 51.8594C114.508 51.8594 114.973 51.9492 115.383 52.1289V53.1016C114.941 52.8125 114.434 52.668 113.859 52.668C113.68 52.668 113.518 52.6895 113.373 52.7324C113.229 52.7715 113.104 52.8281 112.998 52.9023C112.896 52.9766 112.816 53.0664 112.758 53.1719C112.703 53.2734 112.676 53.3867 112.676 53.5117C112.676 53.668 112.703 53.7988 112.758 53.9043C112.816 54.0098 112.9 54.1035 113.01 54.1855C113.119 54.2676 113.252 54.3418 113.408 54.4082C113.564 54.4746 113.742 54.5469 113.941 54.625C114.207 54.7266 114.445 54.832 114.656 54.9414C114.867 55.0469 115.047 55.168 115.195 55.3047C115.344 55.4375 115.457 55.5918 115.535 55.7676C115.617 55.9434 115.658 56.1523 115.658 56.3945C115.658 56.6914 115.592 56.9492 115.459 57.168C115.33 57.3867 115.156 57.5684 114.938 57.7129C114.719 57.8574 114.467 57.9648 114.182 58.0352C113.896 58.1055 113.598 58.1406 113.285 58.1406C112.668 58.1406 112.133 58.0215 111.68 57.7832ZM119.648 58.1406C118.762 58.1406 118.053 57.8613 117.521 57.3027C116.994 56.7402 116.73 55.9961 116.73 55.0703C116.73 54.0625 117.006 53.2754 117.557 52.709C118.107 52.1426 118.852 51.8594 119.789 51.8594C120.684 51.8594 121.381 52.1348 121.881 52.6855C122.385 53.2363 122.637 54 122.637 54.9766C122.637 55.9336 122.365 56.7012 121.822 57.2793C121.283 57.8535 120.559 58.1406 119.648 58.1406ZM119.719 52.668C119.102 52.668 118.613 52.8789 118.254 53.3008C117.895 53.7188 117.715 54.2969 117.715 55.0352C117.715 55.7461 117.896 56.3066 118.26 56.7168C118.623 57.127 119.109 57.332 119.719 57.332C120.34 57.332 120.816 57.1309 121.148 56.7285C121.484 56.3262 121.652 55.7539 121.652 55.0117C121.652 54.2617 121.484 53.6836 121.148 53.2773C120.816 52.8711 120.34 52.668 119.719 52.668ZM127.301 52.9727C127.133 52.8438 126.891 52.7793 126.574 52.7793C126.164 52.7793 125.82 52.9727 125.543 53.3594C125.27 53.7461 125.133 54.2734 125.133 54.9414V58H124.172V52H125.133V53.2363H125.156C125.293 52.8145 125.502 52.4863 125.783 52.252C126.064 52.0137 126.379 51.8945 126.727 51.8945C126.977 51.8945 127.168 51.9219 127.301 51.9766V52.9727ZM135.152 58.1406C133.961 58.1406 133.006 57.748 132.287 56.9629C131.572 56.1777 131.215 55.1562 131.215 53.8984C131.215 52.5469 131.58 51.4688 132.311 50.6641C133.041 49.8594 134.035 49.457 135.293 49.457C136.453 49.457 137.387 49.8477 138.094 50.6289C138.805 51.4102 139.16 52.4316 139.16 53.6934C139.16 55.0645 138.797 56.1484 138.07 56.9453C137.344 57.7422 136.371 58.1406 135.152 58.1406ZM135.223 50.3477C134.34 50.3477 133.623 50.666 133.072 51.3027C132.521 51.9395 132.246 52.7754 132.246 53.8105C132.246 54.8457 132.514 55.6797 133.049 56.3125C133.588 56.9414 134.289 57.2559 135.152 57.2559C136.074 57.2559 136.801 56.9551 137.332 56.3535C137.863 55.752 138.129 54.9102 138.129 53.8281C138.129 52.7188 137.871 51.8613 137.355 51.2559C136.84 50.6504 136.129 50.3477 135.223 50.3477ZM145.066 52L143.051 55.0352L145.031 58H143.912L142.734 56.0547C142.66 55.9336 142.572 55.7812 142.471 55.5977H142.447C142.428 55.6328 142.336 55.7852 142.172 56.0547L140.971 58H139.863L141.908 55.0586L139.951 52H141.07L142.23 54.0508C142.316 54.2031 142.4 54.3594 142.482 54.5195H142.506L144.006 52H145.066ZM149.156 49.9609C148.969 49.8555 148.756 49.8027 148.518 49.8027C147.846 49.8027 147.51 50.2266 147.51 51.0742V52H148.916V52.8203H147.51V58H146.555V52.8203H145.529V52H146.555V51.0273C146.555 50.3984 146.736 49.9023 147.1 49.5391C147.463 49.1719 147.916 48.9883 148.459 48.9883C148.752 48.9883 148.984 49.0234 149.156 49.0938V49.9609ZM152.461 58.1406C151.574 58.1406 150.865 57.8613 150.334 57.3027C149.807 56.7402 149.543 55.9961 149.543 55.0703C149.543 54.0625 149.818 53.2754 150.369 52.709C150.92 52.1426 151.664 51.8594 152.602 51.8594C153.496 51.8594 154.193 52.1348 154.693 52.6855C155.197 53.2363 155.449 54 155.449 54.9766C155.449 55.9336 155.178 56.7012 154.635 57.2793C154.096 57.8535 153.371 58.1406 152.461 58.1406ZM152.531 52.668C151.914 52.668 151.426 52.8789 151.066 53.3008C150.707 53.7188 150.527 54.2969 150.527 55.0352C150.527 55.7461 150.709 56.3066 151.072 56.7168C151.436 57.127 151.922 57.332 152.531 57.332C153.152 57.332 153.629 57.1309 153.961 56.7285C154.297 56.3262 154.465 55.7539 154.465 55.0117C154.465 54.2617 154.297 53.6836 153.961 53.2773C153.629 52.8711 153.152 52.668 152.531 52.668ZM160.113 52.9727C159.945 52.8438 159.703 52.7793 159.387 52.7793C158.977 52.7793 158.633 52.9727 158.355 53.3594C158.082 53.7461 157.945 54.2734 157.945 54.9414V58H156.984V52H157.945V53.2363H157.969C158.105 52.8145 158.314 52.4863 158.596 52.252C158.877 52.0137 159.191 51.8945 159.539 51.8945C159.789 51.8945 159.98 51.9219 160.113 51.9766V52.9727ZM166.277 58H165.316V56.9805H165.293C164.848 57.7539 164.16 58.1406 163.23 58.1406C162.477 58.1406 161.873 57.873 161.42 57.3379C160.971 56.7988 160.746 56.0664 160.746 55.1406C160.746 54.1484 160.996 53.3535 161.496 52.7559C161.996 52.1582 162.662 51.8594 163.494 51.8594C164.318 51.8594 164.918 52.1836 165.293 52.832H165.316V49.1172H166.277V58ZM165.316 55.2871V54.4023C165.316 53.918 165.156 53.5078 164.836 53.1719C164.516 52.8359 164.109 52.668 163.617 52.668C163.031 52.668 162.57 52.8828 162.234 53.3125C161.898 53.7422 161.73 54.3359 161.73 55.0938C161.73 55.7852 161.891 56.332 162.211 56.7344C162.535 57.1328 162.969 57.332 163.512 57.332C164.047 57.332 164.48 57.1387 164.812 56.752C165.148 56.3652 165.316 55.877 165.316 55.2871ZM174.035 59.9102H173.18C171.969 58.5273 171.363 56.8223 171.363 54.7949C171.363 52.7598 171.969 51.0273 173.18 49.5977H174.047C172.82 51.082 172.207 52.8105 172.207 54.7832C172.207 56.7402 172.816 58.4492 174.035 59.9102ZM181.77 58H180.68L179.789 55.6445H176.227L175.389 58H174.293L177.516 49.5977H178.535L181.77 58ZM179.467 54.7598L178.148 51.1797C178.105 51.0625 178.062 50.875 178.02 50.6172H177.996C177.957 50.8555 177.912 51.043 177.861 51.1797L176.555 54.7598H179.467ZM183.375 50.4766C183.203 50.4766 183.057 50.418 182.936 50.3008C182.814 50.1836 182.754 50.0352 182.754 49.8555C182.754 49.6758 182.814 49.5273 182.936 49.4102C183.057 49.2891 183.203 49.2285 183.375 49.2285C183.551 49.2285 183.699 49.2891 183.82 49.4102C183.945 49.5273 184.008 49.6758 184.008 49.8555C184.008 50.0273 183.945 50.1738 183.82 50.2949C183.699 50.416 183.551 50.4766 183.375 50.4766ZM183.844 58H182.883V52H183.844V58ZM193.664 58H189.211V49.5977H193.477V50.4883H190.195V53.2832H193.23V54.168H190.195V57.1094H193.664V58ZM200.133 58H199.172V54.5781C199.172 53.3047 198.707 52.668 197.777 52.668C197.297 52.668 196.898 52.8496 196.582 53.2129C196.27 53.5723 196.113 54.0273 196.113 54.5781V58H195.152V52H196.113V52.9961H196.137C196.59 52.2383 197.246 51.8594 198.105 51.8594C198.762 51.8594 199.264 52.0723 199.611 52.498C199.959 52.9199 200.133 53.5312 200.133 54.332V58ZM207.07 57.5195C207.07 59.7227 206.016 60.8242 203.906 60.8242C203.164 60.8242 202.516 60.6836 201.961 60.4023V59.4414C202.637 59.8164 203.281 60.0039 203.895 60.0039C205.371 60.0039 206.109 59.2188 206.109 57.6484V56.9922H206.086C205.629 57.7578 204.941 58.1406 204.023 58.1406C203.277 58.1406 202.676 57.875 202.219 57.3438C201.766 56.8086 201.539 56.0918 201.539 55.1934C201.539 54.1738 201.783 53.3633 202.271 52.7617C202.764 52.1602 203.436 51.8594 204.287 51.8594C205.096 51.8594 205.695 52.1836 206.086 52.832H206.109V52H207.07V57.5195ZM206.109 55.2871V54.4023C206.109 53.9258 205.947 53.5176 205.623 53.1777C205.303 52.8379 204.902 52.668 204.422 52.668C203.828 52.668 203.363 52.8848 203.027 53.3184C202.691 53.748 202.523 54.3516 202.523 55.1289C202.523 55.7969 202.684 56.332 203.004 56.7344C203.328 57.1328 203.756 57.332 204.287 57.332C204.826 57.332 205.264 57.1406 205.6 56.7578C205.939 56.375 206.109 55.8848 206.109 55.2871ZM209.508 50.4766C209.336 50.4766 209.189 50.418 209.068 50.3008C208.947 50.1836 208.887 50.0352 208.887 49.8555C208.887 49.6758 208.947 49.5273 209.068 49.4102C209.189 49.2891 209.336 49.2285 209.508 49.2285C209.684 49.2285 209.832 49.2891 209.953 49.4102C210.078 49.5273 210.141 49.6758 210.141 49.8555C210.141 50.0273 210.078 50.1738 209.953 50.2949C209.832 50.416 209.684 50.4766 209.508 50.4766ZM209.977 58H209.016V52H209.977V58ZM216.902 58H215.941V54.5781C215.941 53.3047 215.477 52.668 214.547 52.668C214.066 52.668 213.668 52.8496 213.352 53.2129C213.039 53.5723 212.883 54.0273 212.883 54.5781V58H211.922V52H212.883V52.9961H212.906C213.359 52.2383 214.016 51.8594 214.875 51.8594C215.531 51.8594 216.033 52.0723 216.381 52.498C216.729 52.9199 216.902 53.5312 216.902 54.332V58ZM223.541 55.2402H219.305C219.32 55.9082 219.5 56.4238 219.844 56.7871C220.188 57.1504 220.66 57.332 221.262 57.332C221.938 57.332 222.559 57.1094 223.125 56.6641V57.5664C222.598 57.9492 221.9 58.1406 221.033 58.1406C220.186 58.1406 219.52 57.8691 219.035 57.3262C218.551 56.7793 218.309 56.0117 218.309 55.0234C218.309 54.0898 218.572 53.3301 219.1 52.7441C219.631 52.1543 220.289 51.8594 221.074 51.8594C221.859 51.8594 222.467 52.1133 222.896 52.6211C223.326 53.1289 223.541 53.834 223.541 54.7363V55.2402ZM222.557 54.4258C222.553 53.8711 222.418 53.4395 222.152 53.1309C221.891 52.8223 221.525 52.668 221.057 52.668C220.604 52.668 220.219 52.8301 219.902 53.1543C219.586 53.4785 219.391 53.9023 219.316 54.4258H222.557ZM229.822 55.2402H225.586C225.602 55.9082 225.781 56.4238 226.125 56.7871C226.469 57.1504 226.941 57.332 227.543 57.332C228.219 57.332 228.84 57.1094 229.406 56.6641V57.5664C228.879 57.9492 228.182 58.1406 227.314 58.1406C226.467 58.1406 225.801 57.8691 225.316 57.3262C224.832 56.7793 224.59 56.0117 224.59 55.0234C224.59 54.0898 224.854 53.3301 225.381 52.7441C225.912 52.1543 226.57 51.8594 227.355 51.8594C228.141 51.8594 228.748 52.1133 229.178 52.6211C229.607 53.1289 229.822 53.834 229.822 54.7363V55.2402ZM228.838 54.4258C228.834 53.8711 228.699 53.4395 228.434 53.1309C228.172 52.8223 227.807 52.668 227.338 52.668C226.885 52.668 226.5 52.8301 226.184 53.1543C225.867 53.4785 225.672 53.9023 225.598 54.4258H228.838ZM234.41 52.9727C234.242 52.8438 234 52.7793 233.684 52.7793C233.273 52.7793 232.93 52.9727 232.652 53.3594C232.379 53.7461 232.242 54.2734 232.242 54.9414V58H231.281V52H232.242V53.2363H232.266C232.402 52.8145 232.611 52.4863 232.893 52.252C233.174 52.0137 233.488 51.8945 233.836 51.8945C234.086 51.8945 234.277 51.9219 234.41 51.9766V52.9727ZM235.477 59.9102H234.621C235.84 58.4492 236.449 56.7402 236.449 54.7832C236.449 52.8105 235.836 51.082 234.609 49.5977H235.477C236.695 51.0273 237.305 52.7598 237.305 54.7949C237.305 56.8223 236.695 58.5273 235.477 59.9102Z" fill="#C5C5C5"/>
<path d="M42 64C54.1503 64 64 54.1503 64 42C64 29.8497 54.1503 20 42 20C29.8497 20 20 29.8497 20 42C20 54.1503 29.8497 64 42 64Z" fill="#3D89FB"/>
<path d="M48.3886 53.6016H35.6114C34.8274 53.6016 34.0754 53.2901 33.521 52.7357C32.9666 52.1813 32.6552 51.4294 32.6552 50.6453V48.6516C32.6561 46.796 33.3938 45.0167 34.7063 43.7049C36.0187 42.3931 37.7983 41.6562 39.6539 41.6563H44.3461C46.2021 41.6562 47.9822 42.3935 49.2947 43.7058C50.6071 45.0182 51.3446 46.7981 51.3448 48.6541V50.6479C51.3442 51.4315 51.0324 52.1828 50.4781 52.7366C49.9237 53.2905 49.1722 53.6016 48.3886 53.6016Z" fill="white"/>
<path d="M42 40.3552C44.7495 40.3552 46.9784 38.1263 46.9784 35.3768C46.9784 32.6273 44.7495 30.3984 42 30.3984C39.2506 30.3984 37.0217 32.6273 37.0217 35.3768C37.0217 38.1263 39.2506 40.3552 42 40.3552Z" fill="white"/>
</svg>
