<svg width="60" height="60" viewBox="0 0 60 60" fill="none" xmlns="http://www.w3.org/2000/svg">
<circle cx="30" cy="30" r="30" fill="#6BD270"/>
<path fill-rule="evenodd" clip-rule="evenodd" d="M38.515 29.18L22.455 20.1283C22.3081 20.0449 22.1413 20.0006 21.9713 20H21.9685C21.7985 20.0007 21.6316 20.0449 21.4846 20.1284C21.3366 20.2108 21.2137 20.3302 21.1285 20.4743C21.0433 20.6184 20.999 20.782 21 20.9484V39.0515C20.9993 39.218 21.0437 39.3817 21.1287 39.526C21.2137 39.6703 21.3362 39.7902 21.4839 39.8734C21.6315 39.9566 21.7991 40.0003 21.9697 40C22.1402 39.9997 22.3076 39.9554 22.4549 39.8716L38.515 30.8199C38.6625 30.7368 38.7849 30.6173 38.87 30.4733C38.9552 30.3294 39 30.1661 39 29.9999C39 29.8337 38.9552 29.6705 38.87 29.5265C38.7849 29.3826 38.6625 29.2631 38.515 29.18Z" fill="white"/>
</svg>
