<svg width="307" height="144" viewBox="0 0 307 144" fill="none" xmlns="http://www.w3.org/2000/svg">
<rect width="307" height="144" rx="16" fill="#3D89FB"/>
<rect x="25" y="34" width="162" height="10" rx="5" fill="white" fill-opacity="0.2"/>
<rect x="25" y="34" width="36.2118" height="10" rx="5" fill="white"/>
<rect x="25" y="78" width="162" height="10" rx="5" fill="white" fill-opacity="0.2"/>
<rect x="25" y="78" width="52.7294" height="10" rx="5" fill="white"/>
<rect x="25" y="100" width="162" height="10" rx="5" fill="white" fill-opacity="0.2"/>
<rect x="25" y="100" width="112.075" height="10" rx="5" fill="white"/>
<rect x="25" y="56" width="162" height="10" rx="5" fill="white" fill-opacity="0.2"/>
<rect x="25" y="56" width="89.5764" height="10" rx="5" fill="white"/>
<path d="M275.649 42H245.334C241.826 42 238.983 44.8278 238.983 48.3156V63.1637C240.585 63.9557 242.317 64.812 243.933 65.6109L246.405 60.6913C247.903 57.7165 251.552 56.5078 254.543 57.9939C257.54 59.4853 258.754 63.1045 257.254 66.0851L252.846 74.8531C252.963 76.0137 252.859 77.1836 252.53 78.3159H255.441L247.765 99.3026C247.31 100.547 248.19 102 249.666 102C250.491 102 251.266 101.494 251.564 100.676L259.742 78.3159H261.159L269.419 100.683C269.72 101.496 270.494 102 271.318 102C272.697 102 273.708 100.631 273.214 99.2974L265.465 78.3159H275.649C279.156 78.3159 282 75.4881 282 72.0003V48.3156C282 44.8278 279.156 42 275.649 42ZM271.317 69.7043H262.247C261.131 69.7043 260.226 68.804 260.226 67.6942C260.226 66.5835 261.131 65.6841 262.247 65.6841H271.317C272.434 65.6841 273.339 66.5835 273.339 67.6942C273.339 68.804 272.434 69.7043 271.317 69.7043ZM271.317 62.168H262.247C261.131 62.168 260.226 61.2687 260.226 60.1579C260.226 59.0482 261.131 58.1478 262.247 58.1478H271.317C272.434 58.1478 273.339 59.0482 273.339 60.1579C273.339 61.2687 272.434 62.168 271.317 62.168ZM271.317 54.6328H249.666C248.549 54.6328 247.644 53.7324 247.644 52.6227C247.644 51.5129 248.549 50.6126 249.666 50.6126H271.317C272.434 50.6126 273.339 51.5129 273.339 52.6227C273.339 53.7324 272.434 54.6328 271.317 54.6328Z" fill="white"/>
<path d="M248.567 77.4537C248.933 76.3895 248.93 75.2777 248.622 74.2632L253.639 64.287C254.138 63.294 253.733 62.0864 252.735 61.5901C251.737 61.0934 250.522 61.4959 250.023 62.4889L245.744 70.9973C243.186 69.731 239.301 67.8099 236.171 66.262C233.258 64.822 231.18 63.5306 227.634 63.5306H225.848C228.609 63.5306 231.073 62.267 232.686 60.2893C233.917 58.7844 234.653 56.8664 234.653 54.7762C234.653 49.9399 230.711 46.0202 225.847 46.0202C220.985 46.0202 217.043 49.9399 217.043 54.7762C217.043 57.0988 217.953 59.2094 219.437 60.7756C221.041 62.4722 223.32 63.5306 225.846 63.5311C222.459 63.5311 219.148 64.8958 216.766 67.2708C214.338 69.6792 213 72.8881 213 76.3063V82.7653C213 85.5459 214.816 87.912 217.33 88.7537V99.9894C217.33 101.1 218.235 101.999 219.352 101.999H232.343C233.46 101.999 234.364 101.1 234.364 99.9894V77.4045C236.281 78.3572 238.799 79.6088 240.836 80.6222C242.265 81.3321 243.933 81.3959 245.422 80.7939C246.906 80.1867 248.049 78.978 248.56 77.4773C248.562 77.4694 248.565 77.4616 248.567 77.4537Z" fill="white"/>
</svg>
