<svg width="40" height="40" viewBox="0 0 40 40" fill="none" xmlns="http://www.w3.org/2000/svg">
<rect width="40" height="40" rx="8" fill="#3D89FB" fill-opacity="0.1"/>
<path fill-rule="evenodd" clip-rule="evenodd" d="M21.466 15.0989L21.0965 15.4325C21.0696 15.4568 18.3791 17.8325 13.6191 17.567C13.8038 14.4661 16.3711 12 19.5006 12C22.6279 12 25.1934 14.4624 25.3817 17.56C23.4171 17.542 21.7902 15.5113 21.7738 15.4906L21.466 15.0989ZM25.3934 18.4978C23.5135 18.4915 21.9796 17.0957 21.3491 16.423C20.9897 16.6847 20.3736 17.0839 19.5174 17.4647C18.3859 17.968 16.6196 18.5254 14.3492 18.5254C14.1079 18.5254 13.8608 18.519 13.6083 18.5057V18.8472L15.2353 19.6498C15.6402 19.2047 16.222 18.9252 16.8678 18.9252C17.7978 18.9252 18.5951 19.5054 18.922 20.3246H20.0797C20.4065 19.5054 21.2039 18.9252 22.1339 18.9252C22.7797 18.9252 23.3615 19.2048 23.7664 19.6498L25.3934 18.8472V18.4978ZM16.8677 22.4375C17.5738 22.4375 18.1481 21.86 18.1481 21.15C18.1481 20.4402 17.5738 19.8625 16.8677 19.8625C16.1617 19.8625 15.5873 20.4402 15.5873 21.15C15.5873 21.86 16.1617 22.4375 16.8677 22.4375ZM20.8531 21.15C20.8531 20.4402 21.4276 19.8625 22.1336 19.8625C22.8396 19.8625 23.414 20.4402 23.414 21.15C23.414 21.86 22.8396 22.4375 22.1336 22.4375C21.4276 22.4375 20.8531 21.86 20.8531 21.15ZM26.2847 19.4512L24.2368 20.4613C24.3074 20.6782 24.3458 20.9096 24.3458 21.1499C24.3458 22.3768 23.3533 23.3749 22.1331 23.3749C20.9503 23.3749 19.9814 22.437 19.9231 21.262H19.0769C19.0186 22.437 18.0497 23.3749 16.8669 23.3749C15.6467 23.3749 14.6542 22.3768 14.6542 21.1499C14.6542 20.9096 14.6928 20.6782 14.7632 20.4613L12.7154 19.4512C12.2775 19.8339 12 20.3974 12 21.025C12 22.0433 12.7299 22.8936 13.6912 23.0746C13.9113 24.3756 14.5592 25.5674 15.541 26.4634C16.6267 27.4542 18.0327 28 19.5001 28C20.9674 28 22.3733 27.4542 23.4591 26.4634C24.4408 25.5674 25.0887 24.3756 25.3089 23.0746C26.2703 22.8936 27 22.0435 27 21.025C27 20.3974 26.7225 19.8339 26.2847 19.4512ZM19.5001 26.0739C18.7573 26.0739 18.0686 25.8165 17.6108 25.3679L18.2615 24.6964C18.5426 24.9719 19.0056 25.1364 19.5001 25.1364C19.9945 25.1364 20.4575 24.9719 20.7386 24.6964L21.3893 25.3679C20.9314 25.8165 20.2428 26.0739 19.5001 26.0739Z" fill="#3D89FB"/>
</svg>
