<svg width="40" height="40" viewBox="0 0 40 40" fill="none" xmlns="http://www.w3.org/2000/svg">
<rect width="40" height="40" rx="8" fill="#3D89FB" fill-opacity="0.1"/>
<path d="M23.1557 27.4636H22.783C22.2553 27.2394 21.8877 26.7564 21.7992 26.1957H18.2025C18.1668 26.432 18.0783 26.6563 17.9506 26.8512C17.7753 27.1186 17.5234 27.3342 17.2187 27.4636H16.8442C16.6978 27.4636 16.5804 27.5844 16.5804 27.731C16.5804 27.8794 16.6978 28.0001 16.8442 28.0001H23.1557C23.3021 28.0001 23.4212 27.8794 23.4212 27.731C23.4213 27.5844 23.3021 27.4636 23.1557 27.4636Z" fill="#3D89FB"/>
<path d="M13.8553 20.8393H19.0076C19.5081 20.8393 19.9166 21.2516 19.9166 21.7587C19.9166 21.8053 19.954 21.845 20.0017 21.845C20.0476 21.845 20.0868 21.8053 20.0868 21.7587C20.0868 21.2516 20.4919 20.8393 20.9923 20.8393H26.1447C26.4 20.8393 26.6076 20.6288 26.6076 20.3701V12.4675C26.6076 12.2087 26.4 12 26.1447 12H20.9923C20.5464 12 20.1651 12.2743 20.0017 12.6659C19.8366 12.2743 19.4536 12 19.0076 12H13.8553C13.6 12 13.3923 12.2087 13.3923 12.4675V20.37C13.3923 20.6288 13.6 20.8393 13.8553 20.8393ZM25.4649 19.0643H22.8971C22.8281 19.0643 22.7723 19.0077 22.7723 18.9378C22.7723 18.8678 22.8281 18.8112 22.8971 18.8112H25.4649C25.5339 18.8112 25.5898 18.8678 25.5898 18.9378C25.5898 19.0077 25.5339 19.0643 25.4649 19.0643ZM25.4649 18.1675H23.7298C23.6608 18.1675 23.605 18.1109 23.605 18.041C23.605 17.971 23.6608 17.9144 23.7298 17.9144H25.4649C25.5339 17.9144 25.5898 17.971 25.5898 18.041C25.5898 18.1109 25.5339 18.1675 25.4649 18.1675ZM25.4649 17.2648H22.8971C22.8281 17.2648 22.7723 17.2082 22.7723 17.1382C22.7723 17.0683 22.8281 17.0117 22.8971 17.0117H25.4649C25.5339 17.0117 25.5898 17.0683 25.5898 17.1382C25.5898 17.2082 25.5339 17.2648 25.4649 17.2648ZM25.4649 16.3678H23.7298C23.6608 16.3678 23.605 16.3112 23.605 16.2413C23.605 16.1714 23.6608 16.1148 23.7298 16.1148H25.4649C25.5339 16.1148 25.5898 16.1714 25.5898 16.2413C25.5898 16.3112 25.5339 16.3678 25.4649 16.3678ZM25.4649 15.4652H22.8971C22.8281 15.4652 22.7723 15.4086 22.7723 15.3387C22.7723 15.2688 22.8281 15.2122 22.8971 15.2122H25.4649C25.5339 15.2122 25.5898 15.2688 25.5898 15.3387C25.5898 15.4086 25.5339 15.4652 25.4649 15.4652ZM25.4649 14.5683H23.7298C23.6608 14.5683 23.605 14.5117 23.605 14.4418C23.605 14.3719 23.6608 14.3153 23.7298 14.3153H25.4649C25.5339 14.3153 25.5898 14.3719 25.5898 14.4418C25.5898 14.5117 25.5339 14.5683 25.4649 14.5683ZM22.8971 13.4125H25.4649C25.5339 13.4125 25.5897 13.4691 25.5897 13.5391C25.5897 13.609 25.5339 13.6656 25.4649 13.6656H22.8971C22.8281 13.6656 22.7722 13.609 22.7722 13.5391C22.7722 13.4691 22.8281 13.4125 22.8971 13.4125ZM21.0579 13.4185H22.1797C22.2487 13.4185 22.3046 13.4751 22.3046 13.545C22.3046 13.6149 22.2487 13.6715 22.1797 13.6715H21.0579C20.9889 13.6715 20.933 13.6149 20.933 13.545C20.933 13.4751 20.9889 13.4185 21.0579 13.4185ZM21.0579 14.3153H23.0705C23.1395 14.3153 23.1953 14.3719 23.1953 14.4418C23.1953 14.5117 23.1395 14.5683 23.0705 14.5683H21.0579C20.9889 14.5683 20.933 14.5117 20.933 14.4418C20.933 14.3719 20.9889 14.3153 21.0579 14.3153ZM21.0579 15.218H22.1797C22.2487 15.218 22.3046 15.2746 22.3046 15.3445C22.3046 15.4144 22.2487 15.471 22.1797 15.471H21.0579C20.9889 15.471 20.933 15.4144 20.933 15.3445C20.933 15.2746 20.9889 15.218 21.0579 15.218ZM21.0579 16.1148H23.0705C23.1395 16.1148 23.1953 16.1714 23.1953 16.2413C23.1953 16.3112 23.1395 16.3678 23.0705 16.3678H21.0579C20.9889 16.3678 20.933 16.3112 20.933 16.2413C20.933 16.1714 20.9889 16.1148 21.0579 16.1148ZM21.0579 17.0175H22.1797C22.2487 17.0175 22.3046 17.0741 22.3046 17.144C22.3046 17.214 22.2487 17.2706 22.1797 17.2706H21.0579C20.9889 17.2706 20.933 17.214 20.933 17.144C20.933 17.0741 20.9889 17.0175 21.0579 17.0175ZM21.0579 17.9144H23.0705C23.1395 17.9144 23.1953 17.971 23.1953 18.041C23.1953 18.1109 23.1395 18.1675 23.0705 18.1675H21.0579C20.9889 18.1675 20.933 18.1109 20.933 18.041C20.933 17.971 20.9889 17.9144 21.0579 17.9144ZM21.0579 18.8172H22.1797C22.2487 18.8172 22.3046 18.8738 22.3046 18.9437C22.3046 19.0136 22.2487 19.0702 22.1797 19.0702H21.0579C20.9889 19.0702 20.933 19.0136 20.933 18.9437C20.933 18.8738 20.9889 18.8172 21.0579 18.8172ZM18.9424 19.5563H16.3743C16.3053 19.5563 16.2495 19.4997 16.2495 19.4298C16.2495 19.3598 16.3053 19.3032 16.3743 19.3032H18.9424C19.0114 19.3032 19.0672 19.3598 19.0672 19.4298C19.0672 19.4997 19.0114 19.5563 18.9424 19.5563ZM19.0672 18.533C19.0672 18.6029 19.0114 18.6595 18.9424 18.6595H17.207C17.138 18.6595 17.0821 18.6029 17.0821 18.533C17.0821 18.4631 17.138 18.4065 17.207 18.4065H18.9424C19.0114 18.4065 19.0672 18.463 19.0672 18.533ZM16.8126 13.0795C17.9886 13.0795 18.9424 14.0462 18.9424 15.2381C18.9424 16.4325 17.9886 17.3991 16.8126 17.3991C15.6366 17.3991 14.6828 16.4325 14.6828 15.2381C14.6828 14.0462 15.6366 13.0795 16.8126 13.0795ZM14.5351 18.4065H16.5477C16.6167 18.4065 16.6725 18.4631 16.6725 18.533C16.6725 18.6029 16.6167 18.6595 16.5477 18.6595H14.5351C14.4661 18.6595 14.4102 18.6029 14.4102 18.533C14.4102 18.463 14.4661 18.4065 14.5351 18.4065ZM14.5351 19.3092H15.6569C15.7259 19.3092 15.7818 19.3658 15.7818 19.4357C15.7818 19.5057 15.7259 19.5623 15.6569 19.5623H14.5351C14.4661 19.5623 14.4102 19.5057 14.4102 19.4357C14.4102 19.3658 14.4661 19.3092 14.5351 19.3092Z" fill="#3D89FB"/>
<path d="M16.4521 16.1331L17.4657 15.3821C17.561 15.3115 17.561 15.1674 17.4657 15.0968L16.4521 14.3458C16.3369 14.2604 16.1748 14.3438 16.1748 14.4885V15.9905C16.1748 16.135 16.3369 16.2184 16.4521 16.1331Z" fill="#3D89FB"/>
<path d="M27.3532 14.1097H26.9481V14.7998H27.3192V22.8972H12.6808V14.7998H13.0519V14.1097H12.6468C12.2894 14.1097 12 14.403 12 14.7635V25.195C12 25.5573 12.2911 25.8505 12.6468 25.8505H27.3532C27.7106 25.8505 28 25.5573 28 25.195V14.7635C28 14.403 27.7089 14.1097 27.3532 14.1097ZM18.8187 24.8241C18.5923 24.8241 18.4102 24.6378 18.4102 24.4101C18.4102 24.179 18.5923 23.9944 18.8187 23.9944C19.0451 23.9944 19.2272 24.179 19.2272 24.4101C19.2273 24.6378 19.0451 24.8241 18.8187 24.8241ZM20 24.8241C19.7736 24.8241 19.5915 24.6378 19.5915 24.4101C19.5915 24.179 19.7736 23.9944 20 23.9944C20.2264 23.9944 20.4102 24.179 20.4102 24.4101C20.4102 24.6378 20.2264 24.8241 20 24.8241ZM21.1813 24.8241C20.9549 24.8241 20.7728 24.6378 20.7728 24.4101C20.7728 24.179 20.9549 23.9944 21.1813 23.9944C21.4077 23.9944 21.5915 24.179 21.5915 24.4101C21.5915 24.6378 21.4077 24.8241 21.1813 24.8241Z" fill="#3D89FB"/>
</svg>
