<svg width="40" height="40" viewBox="0 0 40 40" fill="none" xmlns="http://www.w3.org/2000/svg">
<rect width="40" height="40" rx="8" fill="#3D89FB" fill-opacity="0.1"/>
<path d="M26.4167 13.7854H21.6522V13.6084C21.6522 13.1581 21.4689 12.7578 21.1683 12.4718C20.8675 12.1787 20.4569 12 20.0022 12C19.0856 12 18.3522 12.7148 18.3522 13.6084V13.7854H13.5834C13.0775 13.7854 12.6667 14.1857 12.6667 14.6789V23.3427C12.6667 23.836 13.0775 24.2434 13.5834 24.2434H17.1505L16.1313 27.0456C15.9919 27.4173 16.1973 27.8248 16.5785 27.9606C16.9197 28.0815 17.3729 27.9157 17.5099 27.5246L18.6172 24.4793C18.6466 24.4007 18.6612 24.3293 18.6612 24.2434H21.3378C21.3378 24.3221 21.3525 24.4007 21.3819 24.4793L22.4892 27.5246C22.6399 27.9259 23.0912 28.0801 23.4279 27.9606C23.8093 27.8248 24.0073 27.4173 23.8752 27.0456L22.8559 24.2434H26.4167C26.9228 24.2434 27.3334 23.836 27.3334 23.3427V14.6789C27.3334 14.1857 26.9228 13.7854 26.4167 13.7854ZM16.1281 21.2054C16.1281 21.5985 15.7981 21.9202 15.3947 21.9202C14.9914 21.9202 14.6614 21.5985 14.6614 21.2054V19.0108C14.6614 18.6105 14.9914 18.296 15.3947 18.296C15.7981 18.296 16.1281 18.6105 16.1281 19.0108V21.2054ZM19.2008 21.2054C19.2008 21.5985 18.8707 21.9202 18.4674 21.9202C18.0568 21.9202 17.7341 21.5985 17.7341 21.2054V18.2317C17.7341 17.8385 18.0568 17.5169 18.4674 17.5169C18.8707 17.5169 19.2008 17.8385 19.2008 18.2317V21.2054ZM20.7995 21.2054V19.0251C20.7995 18.632 21.1294 18.3103 21.5328 18.3103C21.9434 18.3103 22.2661 18.632 22.2661 19.0251V21.2054C22.2661 21.5985 21.9434 21.9202 21.5328 21.9202C21.1294 21.9202 20.7995 21.5985 20.7995 21.2054ZM25.3388 21.2054C25.3388 21.5985 25.0161 21.9202 24.6054 21.9202C24.2021 21.9202 23.8721 21.5985 23.8721 21.2054V16.8234C23.8721 16.4303 24.2021 16.1086 24.6054 16.1086C25.0161 16.1086 25.3388 16.4303 25.3388 16.8234V21.2054Z" fill="#3D89FB"/>
</svg>
