<svg width="40" height="40" viewBox="0 0 40 40" fill="none" xmlns="http://www.w3.org/2000/svg">
<rect width="40" height="40" rx="8" fill="#3D89FB" fill-opacity="0.1"/>
<path d="M28.4375 12H11.5625C11.252 12 11 12.2549 11 12.5714V13.7143C11 14.0297 11.252 14.2857 11.5625 14.2857H12.125V23.4286C12.125 24.0594 12.6301 24.5714 13.25 24.5714H19.4375V25.9794L18.0009 26.9531C17.7421 27.128 17.6724 27.4834 17.8445 27.7451C18.0155 28.0069 18.3631 28.0777 18.6241 27.904L20 26.9726L21.3759 27.904C21.4715 27.9691 21.5795 28 21.6875 28C21.8686 28 22.0464 27.9109 22.1555 27.7451C22.3276 27.4834 22.2579 27.128 21.9991 26.9531L20.5625 25.9794V24.5714H26.75C27.371 24.5714 27.875 24.0594 27.875 23.4286V14.2857H28.4375C28.748 14.2857 29 14.0297 29 13.7143V12.5714C29 12.2549 28.748 12 28.4375 12ZM15.5 22.2857H14.375V18.8571H15.5V22.2857ZM17.75 22.2857H16.625V16.5714H17.75V22.2857ZM22.8125 22.2857C21.2611 22.2857 20 21.0034 20 19.4286C20 18.0491 20.9675 16.8949 22.25 16.6297V20H25.5676C25.3066 21.3029 24.1715 22.2857 22.8125 22.2857ZM23.375 18.8571V16.6297C24.4753 16.8571 25.3438 17.7394 25.5676 18.8571H23.375Z" fill="#3D89FB"/>
</svg>
