<svg width="30" height="30" viewBox="0 0 30 30" fill="none" xmlns="http://www.w3.org/2000/svg">
<path d="M17.6248 21.4252C17.5421 21.9414 17.4108 22.44 17.2339 22.9169L18.8213 24.3843C18.5987 24.8623 18.3452 25.3216 18.0527 25.753L16.0146 25.0826C15.6931 25.4835 15.3332 25.8502 14.9403 26.1781L15.5973 28.2574C15.1745 28.5559 14.7243 28.814 14.2558 29.0416L12.8175 27.4221C12.3501 27.6026 11.8618 27.7366 11.3553 27.8209L10.9026 29.9602C10.6466 29.9809 10.3895 30 10.1279 30C9.86631 30 9.60927 29.9809 9.35273 29.9602L8.89999 27.8209C8.39401 27.7366 7.90527 27.6026 7.43783 27.4221L5.9995 29.0416C5.53104 28.8145 5.08084 28.5559 4.65801 28.2574L5.31507 26.1781C4.92215 25.8502 4.56269 25.483 4.24126 25.0826L2.20316 25.753C1.91063 25.3216 1.65764 24.8623 1.43457 24.3843L3.02195 22.9169C2.84501 22.44 2.7137 21.9419 2.63106 21.4252L0.534155 20.9633C0.513876 20.7016 0.495117 20.4393 0.495117 20.1724C0.495117 19.9055 0.513876 19.6433 0.534155 19.3816L2.63106 18.9197C2.7137 18.4035 2.84501 17.9048 3.02195 17.428L1.43457 15.9605C1.65714 15.4826 1.91063 15.0233 2.20316 14.5919L4.24126 15.2623C4.56269 14.8614 4.92266 14.4947 5.31557 14.1667L4.65851 12.0874C5.08134 11.789 5.53155 11.5309 6.00001 11.3033L7.43834 12.9228C7.90578 12.7423 8.39401 12.6083 8.90049 12.524L9.35324 10.3847C9.60927 10.364 9.86631 10.3448 10.1279 10.3448C10.3895 10.3448 10.6466 10.364 10.9031 10.3847L11.3558 12.524C11.8618 12.6083 12.3506 12.7423 12.818 12.9228L14.2563 11.3033C14.7248 11.5304 15.175 11.789 15.5978 12.0874L14.9408 14.1667C15.3337 14.4947 15.6931 14.8619 16.0146 15.2628L18.0527 14.5924C18.3452 15.0238 18.5982 15.4831 18.8213 15.9611L17.2339 17.4285C17.4108 17.9054 17.5421 18.4035 17.6248 18.9202L19.7217 19.3821C19.742 19.6433 19.7607 19.9055 19.7607 20.1724C19.7607 20.4393 19.742 20.7016 19.7217 20.9633L17.6248 21.4252ZM10.1279 15C7.32781 15 5.05802 17.3157 5.05802 20.1724C5.05802 23.0292 7.32781 25.3448 10.1279 25.3448C12.928 25.3448 15.1978 23.0292 15.1978 20.1724C15.1978 17.3157 12.928 15 10.1279 15Z" fill="#3D89FB"/>
<path d="M24.6582 6.8819C24.5791 7.14931 24.4756 7.40586 24.3484 7.64741L25.1489 9.21259C24.8787 9.56121 24.5704 9.87569 24.2287 10.1514L22.6946 9.33466C22.4578 9.465 22.2064 9.57052 21.9442 9.65069L21.4251 11.3369C21.2111 11.3628 20.9952 11.3793 20.7751 11.3793C20.5551 11.3793 20.3391 11.3628 20.1257 11.3374L19.6065 9.65121C19.3444 9.57104 19.0929 9.465 18.8562 9.33517L17.322 10.1519C16.9803 9.87621 16.6721 9.56172 16.4018 9.2131L17.2024 7.64793C17.0746 7.40638 16.9712 7.14983 16.8926 6.88241L15.2398 6.35276C15.2145 6.13448 15.1982 5.91414 15.1982 5.68966C15.1982 5.46517 15.2145 5.24483 15.2393 5.02707L16.8921 4.49741C16.9707 4.23 17.0746 3.97345 17.2019 3.7319L16.4013 2.16672C16.6716 1.8181 16.9798 1.50362 17.3215 1.22793L18.8557 2.04466C19.0924 1.91431 19.3439 1.80879 19.606 1.72862L20.1252 0.0424138C20.3391 0.0165517 20.5551 0 20.7751 0C20.9952 0 21.2111 0.0165518 21.4246 0.0418966L21.9437 1.7281C22.2059 1.80828 22.4573 1.91431 22.6941 2.04414L24.2282 1.22741C24.5699 1.5031 24.8782 1.81759 25.1484 2.16621L24.3479 3.73138C24.4756 3.97293 24.5791 4.22948 24.6577 4.4969L26.3104 5.02655C26.3358 5.24483 26.352 5.46517 26.352 5.68966C26.352 5.91414 26.3358 6.13448 26.3109 6.35224L24.6582 6.8819ZM20.7751 3.62069C19.6552 3.62069 18.7472 4.54707 18.7472 5.68966C18.7472 6.83224 19.6552 7.75862 20.7751 7.75862C21.8951 7.75862 22.8031 6.83224 22.8031 5.68966C22.8031 4.54707 21.8951 3.62069 20.7751 3.62069Z" fill="#3D89FB"/>
<path d="M28.7549 18.554C28.6768 18.841 28.5668 19.1131 28.4259 19.3671L28.9303 20.4502C28.7012 20.7486 28.438 21.0171 28.1455 21.2509L27.0839 20.7362C26.8354 20.88 26.5683 20.9922 26.2869 21.0719L25.8924 22.2036C25.7104 22.2264 25.5264 22.2414 25.3383 22.2414C25.1502 22.2414 24.9662 22.2264 24.7842 22.2036L24.3897 21.0719C24.1083 20.9922 23.8417 20.88 23.5927 20.7362L22.5311 21.2509C22.2386 21.0171 21.9754 20.7486 21.7463 20.4502L22.2507 19.3671C22.1098 19.1136 21.9998 18.841 21.9217 18.5545L20.8124 18.1521C20.7901 17.9659 20.7754 17.7781 20.7754 17.5862C20.7754 17.3943 20.7901 17.2065 20.8124 17.0209L21.9217 16.6184C21.9998 16.3314 22.1098 16.0593 22.2507 15.8059L21.7463 14.7228C21.9754 14.4243 22.2386 14.1559 22.5311 13.9221L23.5927 14.4367C23.8412 14.2929 24.1083 14.1807 24.3897 14.101L24.7842 12.9693C24.9662 12.946 25.1502 12.931 25.3383 12.931C25.5264 12.931 25.7104 12.946 25.8924 12.9688L26.2869 14.1005C26.5683 14.1802 26.8349 14.2924 27.0839 14.4362L28.1455 13.9215C28.438 14.1553 28.7012 14.4238 28.9303 14.7222L28.4259 15.8053C28.5668 16.0588 28.6768 16.3314 28.7549 16.6184L29.8642 17.0209C29.8865 17.2065 29.9012 17.3943 29.9012 17.5862C29.9012 17.7781 29.8865 17.9659 29.8642 18.1515L28.7549 18.554ZM25.3383 16.0345C24.4982 16.0345 23.8173 16.7291 23.8173 17.5862C23.8173 18.4433 24.4982 19.1379 25.3383 19.1379C26.1784 19.1379 26.8593 18.4433 26.8593 17.5862C26.8593 16.7291 26.1784 16.0345 25.3383 16.0345Z" fill="#3D89FB"/>
<path d="M30 1.04477L26.9677 0.426147L26.3613 3.51925L27.3555 3.72253L27.6288 2.33011C28.1201 3.37287 28.3797 4.52218 28.3797 5.6896C28.3797 7.47304 27.8027 9.14994 26.7117 10.5387L27.5031 11.1858C28.7224 9.63356 29.3936 7.68201 29.3936 5.6896C29.3936 4.33494 29.0869 2.99942 28.5034 1.79425L29.8013 2.05908L30 1.04477Z" fill="#3D89FB"/>
<path d="M10.9941 5.3241L10.2772 6.05548L10.9662 6.75841C10.6873 6.7403 10.408 6.72427 10.1286 6.72427C6.20656 6.72427 2.51467 8.48858 0 11.5651L0.778736 12.2277C3.10024 9.38754 6.50772 7.75875 10.1286 7.75875C10.3867 7.75875 10.6442 7.77375 10.9018 7.7903L10.2772 8.42754L10.9941 9.15892L12.8735 7.24151L10.9941 5.3241Z" fill="#3D89FB"/>
</svg>
