<svg width="30" height="30" viewBox="0 0 30 30" fill="none" xmlns="http://www.w3.org/2000/svg">
<path d="M27.3637 7.73445H30.0004V1.83751C30.0004 1.48185 29.7866 1.16134 29.4579 1.0254C29.1297 0.889467 28.7512 0.964467 28.4999 1.21583L1.21632 28.4995C0.964955 28.7509 0.889955 29.1294 1.02589 29.4575C1.16183 29.7862 1.48234 30.0001 1.838 30.0001H7.73488V27.6563C7.73488 27.1712 8.12863 26.7774 8.61378 26.7774C9.09894 26.7774 9.49269 27.1712 9.49269 27.6563V30.0001H11.8364V27.6563C11.8364 27.1712 12.2302 26.7774 12.7153 26.7774C13.2005 26.7774 13.5943 27.1712 13.5943 27.6563V30.0001H15.938V27.6563C15.938 27.1712 16.3318 26.7774 16.8169 26.7774C17.3021 26.7774 17.6958 27.1712 17.6958 27.6563V30.0001H20.0396V27.6563C20.0396 27.1712 20.4333 26.7774 20.9185 26.7774C21.4036 26.7774 21.7974 27.1712 21.7974 27.6563V30.0001H24.1411V27.6563C24.1411 27.1712 24.5349 26.7774 25.02 26.7774C25.5052 26.7774 25.8989 27.1712 25.8989 27.6563V30.0001H29.1216C29.6068 30.0001 30.0005 29.6063 30.0005 29.1212V25.8985H27.6568C27.1716 25.8985 26.7778 25.5048 26.7778 25.0196C26.7778 24.5344 27.1716 24.1407 27.6568 24.1407H30.0005V21.7969H27.6568C27.1716 21.7969 26.7778 21.4032 26.7778 20.918C26.7778 20.4329 27.1716 20.0391 27.6568 20.0391H30.0005V17.6954H27.6568C27.1716 17.6954 26.7778 17.3016 26.7778 16.8165C26.7778 16.3313 27.1716 15.9376 27.6568 15.9376H30.0005V13.5938H27.6568C27.1716 13.5938 26.7778 13.2001 26.7778 12.7149C26.7778 12.2298 27.1716 11.836 27.6568 11.836H30.0005V9.49226H27.3638C26.8786 9.49226 26.4849 9.09851 26.4849 8.61335C26.4849 8.1282 26.8786 7.73445 27.3637 7.73445ZM24.727 23.8477C24.727 24.3329 24.3333 24.7266 23.8481 24.7266H14.5692C14.2135 24.7266 13.893 24.5128 13.7571 24.1841C13.6211 23.8559 13.6961 23.4774 13.9475 23.226L23.2264 13.9471C23.4778 13.6958 23.8563 13.6208 24.1844 13.7567C24.5131 13.8927 24.727 14.2132 24.727 14.5688V23.8477Z" fill="#3D89FB"/>
<path d="M2.71238 17.0168L6.44129 20.7458L3.98621 23.2002C3.64226 23.5442 3.08562 23.5424 2.74343 23.2002L0.257301 20.7141C-0.0872303 20.3696 -0.0843006 19.8129 0.257301 19.4713L2.71238 17.0168Z" fill="#3D89FB"/>
<path d="M20.4222 6.52273C20.5042 6.52273 20.5874 6.52039 20.6712 6.5157L7.68398 19.503L3.95508 15.7741L16.7712 2.95789C16.7906 3.95339 17.1456 4.83464 17.8019 5.49148C18.4781 6.16701 19.391 6.52273 20.4222 6.52273Z" fill="#3D89FB"/>
<path d="M23.3735 1.25562L21.8712 4.42203C20.7971 4.91187 19.6833 4.88609 19.0452 4.24801C18.4669 3.66969 18.3919 2.69996 18.7481 1.7232L22.2022 0.0849196C22.538 -0.0744554 22.9382 -0.00531474 23.2007 0.257185C23.4632 0.520271 23.5323 0.919881 23.3735 1.25562Z" fill="#3D89FB"/>
</svg>
